<?xml version="1.0" encoding="utf-8"?>
<!-- Generator: Adobe Illustrator 21.0.0, SVG Export Plug-In . SVG Version: 6.00 Build 0)  -->
<svg version="1.1" id="Layer_1" xmlns="http://www.w3.org/2000/svg" xmlns:xlink="http://www.w3.org/1999/xlink" x="0px" y="0px"
	 viewBox="0 0 638 743" style="enable-background:new 0 0 638 743;" xml:space="preserve">
<style type="text/css">
	.st0{fill:#E2DED6;}
	.st1{fill:none;stroke:#FFFFFF;stroke-width:0.5;stroke-miterlimit:10;}
	.st2{fill:none;stroke:#4275B8;stroke-width:0.5;stroke-linecap:round;stroke-linejoin:round;stroke-miterlimit:10;}
	.st3{fill:none;stroke:#FF5700;stroke-width:0.5;stroke-linecap:round;stroke-linejoin:round;stroke-miterlimit:10;}
	.st4{fill:none;}
	.st5{fill:none;stroke:#272525;stroke-width:0.5;stroke-miterlimit:10;}
	.st6{fill:#272525;}
	.st7{font-family:'Helvetica';}
	.st8{font-size:14px;}
</style>
<g>
	<rect x="49" y="6" class="st0" width="580" height="700"/>
	<path class="st1" d="M49,636h580 M49,566h580 M49,496h580 M49,426h580 M49,356h580 M49,286h580 M49,216h580 M49,146h580 M49,76h580
		 M165,706V6 M281,706V6 M397,706V6 M513,706V6"/>
	<path class="st2" d="M49,706 M107,706 M165,706 M223,706 M281,706 M339,706 M397,706 M49,681.5l11.6,23.8l11.6,0.7 M49,678
		l11.6,27.3l11.6,0.7 M571,706 M629,706 M49,664l11.6,40.6l11.6,1.4 M49,660.5l11.6,41.3l11.6,4.2 M49,657l11.6,45.5l11.6,3.5
		 M49,653.5l11.6,49.7l11.6,2.8 M49,650l11.6,49.7l11.6,6.3 M49,646.5l11.6,49.7l11.6,9.8 M49,643l11.6,54.6l11.6,7.7l11.6,0.7
		 M49,639.5l11.6,53.9L72.2,706 M49,636l11.6,60.2l11.6,9.8 M49,632.5l11.6,50.4l11.6,21.7l11.6,1.4 M49,629l11.6,49.7l11.6,23.1
		l11.6,4.2 M49,625.5l11.6,55.3l11.6,23.8l11.6,1.4 M49,622l11.6,52.5l11.6,28.7l11.6,2.8 M49,618.5l11.6,42.7l11.6,35.7l11.6,9.1
		 M49,615l11.6,56.7l11.6,30.8l11.6,3.5 M49,611.5l11.6,46.2l11.6,33.6l11.6,13.3l11.6,1.4 M49,608l11.6,37.1l11.6,34.3l11.6,23.1
		l11.6,3.5 M49,604.5l11.6,40.6l11.6,30.1l11.6,25.2l11.6,5.6 M49,601l11.6,61.6L72.2,699l11.6,7 M49,597.5l11.6,51.1l11.6,37.1
		L83.8,706 M49,594l11.6,19.6l11.6,21.7l11.6,22.4l11.6,26.6l11.6,18.9l11.6,2.8 M49,590.5l11.6,41.3L72.2,664l11.6,30.1l11.6,11.2
		L107,706 M49,587l11.6,18.9l11.6,12.6l11.6,14l11.6,22.4l11.6,25.2l11.6,21.7l11.6,4.2 M49,583.5l11.6,44.8l11.6,28l11.6,23.1
		l11.6,18.9L107,706 M49,580l11.6,18.9l11.6,23.8l11.6,23.1l11.6,23.8l11.6,23.8l11.6,12.6 M49,576.5l11.6,11.9l11.6,16.1l11.6,12.6
		l11.6,12.6l11.6,14.7l11.6,27.3l11.6,27.3l11.6,7 M49,573l11.6,17.5L72.2,601l11.6,16.8l11.6,14l11.6,15.4l11.6,25.9l11.6,23.8
		l11.6,9.1 M49,569.5l11.6,18.9l11.6,18.2L83.8,622l11.6,16.1l11.6,15.4l11.6,17.5l11.6,23.1l11.6,11.9 M49,566l11.6,35.7l11.6,23.8
		l11.6,26.6l11.6,28l11.6,23.8l11.6,2.1 M49,562.5l11.6,22.4l11.6,15.4l11.6,25.2l11.6,16.1l11.6,17.5l11.6,16.1l11.6,22.4l11.6,7.7
		l11.6,0.7"/>
	<path class="st3" d="M49,559l11.6,12.6l11.6,10.5l11.6-4.2l11.6-8.4L107,566l11.6-4.9l11.6-6.3l11.6-7l11.6-11.2l11.6-9.8
		l11.6-13.3l11.6-16.1l11.6-18.9l11.6-14l11.6-19.6l11.6-11.9l11.6-5.6l11.6-2.1l11.6-7l11.6-2.8l11.6-0.7l11.6,2.1l11.6,0.7
		l11.6-4.2l11.6-7l11.6-1.4l11.6-5.6l11.6-4.2h11.6l11.6-0.7h11.6l11.6-5.6l11.6,2.8l11.6-2.8l11.6-1.4l11.6,0.7l11.6,4.9l11.6-2.8
		l11.6-0.7l11.6,2.1l11.6-4.9l11.6-3.5l11.6,4.2h11.6H571h11.6l11.6-4.9l11.6-2.1l11.6,1.4l11.6,0.7 M49,555.5l11.6-30.8l11.6-25.2
		l11.6-22.4l11.6-12.6l11.6-20.3l11.6-5.6l11.6-13.3l11.6-9.8l11.6-7.7l11.6-14.7l11.6-4.2l11.6-8.4l11.6-1.4l11.6,0.7l11.6-6.3
		l11.6,1.4l11.6-2.1l11.6-4.2l11.6-1.4l11.6,1.4l11.6-2.8l11.6-4.9l11.6-3.5l11.6-1.4l11.6,2.1l11.6-2.8l11.6,2.1l11.6,1.4l11.6-1.4
		l11.6-4.2l11.6-0.7l11.6,4.2l11.6,2.8l11.6-2.8l11.6-4.9l11.6,1.4l11.6,3.5l11.6-2.1l11.6,2.1L513,356l11.6,0.7l11.6-2.1l11.6-2.8
		l11.6-1.4l11.6-0.7l11.6-2.1l11.6-1.4l11.6-1.4l11.6,4.9l11.6,3.5 M49,552l11.6,12.6l11.6-6.3l11.6-8.4l11.6-16.8l11.6-8.4
		l11.6-10.5l11.6-9.8l11.6-11.2l11.6-9.8l11.6-11.9l11.6-14.7l11.6-10.5l11.6-12.6l11.6-7.7l11.6-6.3l11.6-1.4l11.6-10.5l11.6-0.7
		l11.6-5.6l11.6-6.3l11.6-2.1l11.6-6.3l11.6-13.3l11.6-3.5l11.6-1.4l11.6-4.2l11.6,3.5l11.6,2.1l11.6-5.6L397,363l11.6,0.7l11.6,2.1
		l11.6-2.1l11.6,0.7l11.6-0.7l11.6-4.2l11.6-4.9l11.6,0.7l11.6,0.7l11.6-0.7l11.6-2.1l11.6,2.1l11.6,1.4l11.6-2.1l11.6-1.4l11.6,2.8
		l11.6,2.8l11.6-2.8l11.6-1.4l11.6-3.5 M49,548.5l11.6,6.3l11.6-7.7l11.6-10.5l11.6-9.8l11.6-6.3l11.6-10.5l11.6-10.5l11.6-8.4
		l11.6-8.4l11.6-4.2l11.6-11.9l11.6-9.1l11.6-9.1l11.6-4.2l11.6-1.4l11.6-2.1l11.6-6.3l11.6-2.8l11.6-4.2l11.6-6.3l11.6-7l11.6,2.8
		l11.6-2.1l11.6-7l11.6-5.6l11.6-1.4l11.6-0.7l11.6-2.1l11.6-0.7l11.6-4.2l11.6-2.1l11.6-2.1h11.6h11.6l11.6-2.1l11.6-2.1h11.6
		l11.6-1.4l11.6,0.7l11.6-1.4l11.6-7l11.6-0.7l11.6-4.2l11.6,4.2l11.6-0.7l11.6,0.7l11.6,0.7h11.6l11.6-0.7H629 M49,545l11.6-23.1
		l11.6-7.7l11.6-6.3l11.6-13.3L107,482l11.6-16.1l11.6-21l11.6-10.5l11.6-9.8l11.6-4.9l11.6-3.5l11.6-8.4l11.6-1.4l11.6-2.8H223
		l11.6-7.7l11.6-5.6l11.6-2.8l11.6-2.8l11.6-2.1l11.6-0.7l11.6-2.1l11.6-2.8h11.6l11.6-2.1l11.6,0.7l11.6-4.2l11.6-2.8l11.6-1.4
		l11.6-3.5l11.6-1.4l11.6,2.8l11.6-0.7l11.6-2.8l11.6-1.4l11.6-4.2l11.6-3.5l11.6,2.8l11.6,2.1H513l11.6-2.1l11.6-3.5l11.6,3.5
		l11.6,3.5l11.6-0.7l11.6,1.4l11.6-1.4l11.6,3.5l11.6,0.7H629 M49,541.5l11.6,11.2L72.2,531l11.6-8.4l11.6-16.8l11.6-6.3l11.6-15.4
		l11.6-9.1l11.6-9.1l11.6-12.6l11.6-7.7l11.6-11.9l11.6-12.6l11.6-9.1l11.6-14l11.6-9.1l11.6-4.2l11.6,0.7l11.6-7.7l11.6-3.5
		l11.6,0.7l11.6-2.1l11.6-2.8l11.6,0.7l11.6,0.7l11.6-0.7l11.6-0.7l11.6-4.2l11.6,0.7l11.6-0.7l11.6-3.5l11.6,0.7l11.6,2.1l11.6-2.8
		l11.6-1.4l11.6-7l11.6-1.4l11.6,7l11.6,1.4l11.6,1.4l11.6-4.9l11.6,0.7l11.6,2.8l11.6-3.5l11.6,2.1l11.6,0.7l11.6-1.4h11.6
		l11.6,3.5l11.6-3.5l11.6-3.5 M49,538l11.6-4.9l11.6-21.7l11.6-11.9l11.6-16.1l11.6-25.9l11.6-18.9l11.6-6.3l11.6-13.3l11.6-14.7
		l11.6-14.7l11.6-5.6l11.6-11.2l11.6,0.7l11.6-2.8l11.6-4.2l11.6-6.3l11.6-2.1l11.6,0.7l11.6-2.1l11.6-1.4l11.6,2.8l11.6-1.4h11.6
		h11.6L339,356l11.6-0.7l11.6-3.5h11.6l11.6-0.7l11.6-5.6l11.6,0.7h11.6l11.6-1.4l11.6-2.8l11.6,0.7l11.6,1.4l11.6,2.8l11.6,2.8
		h11.6l11.6-2.8l11.6,0.7l11.6,1.4l11.6,2.1l11.6,2.8l11.6-0.7l11.6-3.5l11.6-2.1l11.6-2.8l11.6-1.4l11.6,0.7 M49,534.5l11.6,9.8
		l11.6-7.7l11.6-17.5l11.6-2.8l11.6-3.5l11.6-5.6l11.6-10.5l11.6-13.3l11.6-12.6l11.6-7l11.6-9.8l11.6-4.2l11.6-15.4l11.6-5.6
		l11.6-8.4l11.6-3.5l11.6-2.1l11.6-5.6l11.6-2.8l11.6-2.1l11.6,0.7l11.6,0.7l11.6-2.8l11.6-4.9l11.6,2.1l11.6-0.7l11.6-4.2l11.6-2.1
		l11.6-3.5l11.6-2.1l11.6-0.7l11.6,3.5l11.6-1.4l11.6-2.1l11.6-0.7h11.6l11.6-0.7h11.6l11.6-0.7l11.6-3.5l11.6-0.7l11.6,4.2
		l11.6,0.7l11.6,2.1l11.6,2.8l11.6-0.7l11.6,2.8l11.6-2.8l11.6-2.1l11.6-2.1 M49,531l11.6-8.4L72.2,510l11.6-9.1l11.6-25.2
		l11.6-22.4l11.6-19.6l11.6-9.8l11.6-9.1l11.6-12.6l11.6,0.7l11.6-4.9l11.6-7.7l11.6-7.7l11.6-1.4l11.6-3.5l11.6-4.9l11.6-6.3
		l11.6-1.4l11.6,4.9l11.6,2.1l11.6-7l11.6,0.7l11.6-1.4l11.6,2.1l11.6-0.7l11.6,1.4l11.6,3.5l11.6-1.4l11.6-4.9l11.6-0.7l11.6-1.4
		l11.6-1.4l11.6,2.8l11.6-1.4l11.6-2.1l11.6-3.5l11.6,1.4l11.6,1.4l11.6,4.9H513h11.6l11.6-2.1l11.6-0.7h11.6L571,363l11.6,2.1
		l11.6-1.4l11.6,0.7l11.6,1.4l11.6-3.5 M49,527.5l11.6-18.2l11.6-31.5l11.6-29.4l11.6-16.1L107,419h11.6l11.6-6.3l11.6-16.8
		l11.6-2.1H165l11.6-7l11.6-4.2l11.6-3.5l11.6-8.4l11.6-2.8l11.6,2.8l11.6-3.5h11.6l11.6,1.4l11.6-2.8l11.6-2.8l11.6,1.4l11.6-0.7
		l11.6-4.9l11.6,3.5l11.6,0.7l11.6,1.4l11.6,2.1l11.6-3.5H397l11.6-2.1l11.6-2.1l11.6,1.4l11.6-2.1H455l11.6-2.1l11.6,5.6l11.6-0.7
		l11.6-0.7l11.6-2.1l11.6-0.7l11.6,0.7l11.6-4.2l11.6,6.3l11.6,1.4l11.6,0.7h11.6l11.6-0.7l11.6,4.2H629 M49,524l11.6-17.5
		l11.6-16.1l11.6-20.3l11.6-21.7l11.6-18.9l11.6-9.1l11.6-11.2l11.6-5.6l11.6-0.7l11.6-0.7l11.6-12.6l11.6-6.3l11.6-5.6l11.6,1.4
		l11.6,3.5l11.6-3.5l11.6,2.1h11.6l11.6-2.8l11.6-3.5l11.6-6.3l11.6-2.8h11.6l11.6,4.2l11.6-2.8l11.6-4.2l11.6,0.7l11.6,0.7h11.6
		l11.6-0.7l11.6-3.5l11.6-2.1l11.6-0.7l11.6,0.7l11.6,5.6l11.6,0.7l11.6,3.5l11.6-1.4l11.6-3.5l11.6-0.7l11.6-1.4h11.6h11.6
		l11.6,3.5l11.6,0.7l11.6-2.1l11.6,2.1l11.6-0.7l11.6,4.2l11.6-1.4 M49,520.5l11.6-2.8l11.6-33.6l11.6-27.3l11.6-14l11.6-15.4
		l11.6-15.4l11.6-8.4l11.6-9.1l11.6-7.7l11.6-0.7l11.6,0.7l11.6-3.5l11.6-6.3l11.6,4.2l11.6-3.5l11.6-2.1l11.6-2.1l11.6-1.4
		l11.6-4.2l11.6-0.7l11.6-4.9l11.6-5.6l11.6-2.1l11.6-5.6l11.6-2.1l11.6-0.7l11.6,2.8l11.6,1.4h11.6H397l11.6-1.4l11.6,0.7l11.6,0.7
		l11.6,0.7l11.6,0.7l11.6,4.2h11.6l11.6,0.7l11.6,2.1l11.6-0.7l11.6-0.7l11.6-2.1l11.6-1.4l11.6,1.4l11.6-0.7l11.6,0.7l11.6-1.4
		l11.6-1.4l11.6-1.4H629 M49,517l11.6-19.6l11.6-2.8l11.6-18.2L95.4,461l11.6-9.1l11.6-4.2l11.6-11.9l11.6-0.7l11.6-7l11.6-6.3
		l11.6,2.8l11.6-5.6l11.6-5.6l11.6-2.8l11.6-0.7l11.6-5.6l11.6-1.4l11.6-4.2l11.6-2.1l11.6-4.2l11.6-5.6l11.6,0.7l11.6,3.5l11.6,0.7
		l11.6,4.9l11.6-4.2l11.6-4.9h11.6l11.6-3.5l11.6-2.1h11.6l11.6-3.5l11.6-4.9l11.6-4.2l11.6-2.8l11.6-3.5h11.6l11.6,1.4l11.6,1.4
		l11.6-5.6l11.6-2.1l11.6-0.7l11.6,0.7l11.6-2.8H571l11.6,0.7l11.6-4.9h11.6l11.6,0.7l11.6,2.8 M49,513.5l11.6-35l11.6-16.1
		l11.6-20.3l11.6-20.3l11.6-1.4l11.6-9.8l11.6-7l11.6-4.9l11.6,1.4l11.6-0.7l11.6-7h11.6l11.6-2.8l11.6-5.6l11.6-2.8l11.6-0.7
		l11.6-0.7l11.6-2.8h11.6l11.6,0.7l11.6-3.5l11.6-2.8l11.6,1.4h11.6l11.6,0.7l11.6,3.5l11.6-1.4l11.6,0.7l11.6,0.7H397l11.6-2.1
		l11.6,2.8l11.6-2.8h11.6l11.6-2.8l11.6,0.7l11.6,0.7l11.6,0.7l11.6,2.8l11.6,0.7l11.6,0.7l11.6-1.4l11.6,0.7l11.6-2.1l11.6,2.8
		l11.6-1.4l11.6-2.1l11.6-3.5l11.6,1.4l11.6-4.2 M49,510l11.6-25.9l11.6-22.4l11.6-16.1l11.6-11.2l11.6-13.3l11.6-7l11.6-4.9
		l11.6-2.8l11.6-4.9l11.6-0.7l11.6-4.2l11.6-3.5l11.6-2.1l11.6-1.4l11.6-6.3l11.6-3.5l11.6-3.5l11.6-4.2l11.6-6.3L281,363l11.6-2.8
		l11.6,0.7l11.6-2.1l11.6-3.5l11.6-1.4l11.6,3.5l11.6-2.1l11.6-3.5l11.6-0.7l11.6-5.6l11.6-3.5l11.6-5.6h11.6l11.6-0.7l11.6,2.1
		l11.6-1.4l11.6,0.7l11.6-3.5l11.6-4.2H513l11.6,0.7l11.6,1.4l11.6,0.7l11.6,2.8l11.6,2.1l11.6,3.5l11.6,3.5l11.6,2.8l11.6,2.1
		l11.6,2.1 M49,506.5l11.6-8.4l11.6-21.7l11.6-20.3l11.6-21l11.6-14l11.6-16.8l11.6-11.2l11.6-8.4l11.6,2.1l11.6-7l11.6-11.2
		l11.6-2.8l11.6-6.3h11.6l11.6-4.2l11.6-1.4l11.6,1.4l11.6,0.7h11.6H281l11.6-2.1l11.6,0.7l11.6,0.7l11.6-0.7H339l11.6-0.7l11.6,3.5
		l11.6,0.7l11.6-2.1l11.6-1.4l11.6-2.8l11.6,1.4l11.6-1.4l11.6-0.7l11.6-0.7l11.6-1.4l11.6-1.4l11.6-0.7l11.6-2.1l11.6-1.4l11.6,1.4
		l11.6,1.4l11.6,0.7l11.6-2.8L571,342l11.6-0.7l11.6,3.5l11.6,2.1l11.6-1.4l11.6-2.1 M49,503l11.6,4.9l11.6-20.3l11.6-21.7l11.6-9.1
		l11.6-14.7l11.6-6.3l11.6-9.8l11.6-6.3l11.6-6.3l11.6-9.1l11.6-4.9h11.6l11.6-4.9h11.6l11.6,2.1l11.6-3.5l11.6,2.1l11.6,0.7
		l11.6-3.5l11.6-4.9l11.6-2.8l11.6-6.3l11.6,1.4l11.6-2.1l11.6-1.4l11.6-4.2l11.6-3.5l11.6,2.1l11.6,2.8l11.6,4.2l11.6-2.1l11.6-4.2
		l11.6-1.4l11.6-2.8l11.6-0.7l11.6-2.1l11.6-4.2l11.6,0.7l11.6,3.5l11.6-0.7l11.6,1.4h11.6l11.6-1.4l11.6-1.4H571l11.6,0.7l11.6,0.7
		l11.6,2.8l11.6-2.8l11.6-3.5 M49,499.5l11.6-27.3l11.6-18.9l11.6-14l11.6-2.8l11.6-5.6l11.6-7.7l11.6-8.4l11.6-6.3l11.6-2.8
		l11.6-2.1l11.6-4.9l11.6-4.2l11.6-2.8l11.6-7.7l11.6-1.4l11.6-1.4l11.6,0.7l11.6,0.7l11.6-4.9L281,377l11.6-5.6l11.6,0.7l11.6-2.8
		l11.6-4.9l11.6,1.4l11.6,3.5l11.6,0.7l11.6-3.5l11.6,1.4l11.6,1.4l11.6,0.7h11.6l11.6-1.4l11.6-1.4l11.6-0.7l11.6,0.7l11.6,0.7
		l11.6,1.4l11.6-1.4H513l11.6-6.3l11.6-0.7h11.6l11.6,1.4L571,363h11.6h11.6l11.6-0.7l11.6-0.7l11.6-0.7 M49,496l11.6-21.7l11.6-21
		l11.6-25.9l11.6-11.9l11.6-7l11.6-9.1l11.6-0.7l11.6-2.1l11.6-3.5l11.6-2.8l11.6-7l11.6,2.1l11.6-4.9l11.6-2.8l11.6-3.5l11.6-7
		l11.6-0.7l11.6-2.8l11.6-2.8l11.6-5.6h11.6l11.6-0.7l11.6-2.8l11.6-0.7l11.6-0.7l11.6,4.2l11.6,1.4l11.6,1.4l11.6-2.1l11.6-2.8
		h11.6l11.6,2.8l11.6,1.4l11.6-1.4H455l11.6,1.4l11.6,0.7l11.6,0.7h11.6l11.6,1.4l11.6-3.5h11.6l11.6-0.7l11.6-2.8l11.6,2.1
		l11.6-2.8l11.6-2.8l11.6-2.1h11.6l11.6,0.7 M49,492.5l11.6-9.8l11.6-21l11.6-3.5l11.6-17.5l11.6-9.1l11.6-4.2l11.6-12.6l11.6-2.1
		l11.6-9.8l11.6-8.4l11.6-4.9l11.6-0.7l11.6-5.6l11.6-6.3l11.6-2.8h11.6l11.6-7l11.6,0.7l11.6-1.4l11.6-4.2l11.6,0.7l11.6,2.1
		l11.6-1.4l11.6-3.5l11.6-0.7l11.6,1.4h11.6l11.6-1.4h11.6l11.6-0.7h11.6l11.6-3.5l11.6,1.4l11.6-0.7H455l11.6-1.4l11.6-2.8
		l11.6,2.1l11.6,0.7l11.6-2.8l11.6,0.7l11.6-1.4l11.6,0.7l11.6,2.8l11.6-0.7l11.6,2.8l11.6-2.1l11.6,0.7h11.6l11.6-0.7 M49,489
		l11.6-21l11.6-18.2l11.6-10.5l11.6,1.4L107,433l11.6-8.4l11.6-7.7h11.6l11.6-1.4l11.6-5.6l11.6-8.4l11.6-4.9l11.6-0.7l11.6-2.1H223
		l11.6-2.8l11.6-1.4l11.6-2.8l11.6-5.6L281,377l11.6-2.8h11.6l11.6-0.7l11.6-0.7l11.6-0.7l11.6-3.5l11.6-0.7h11.6l11.6-1.4l11.6,0.7
		l11.6,1.4l11.6,0.7l11.6,2.8l11.6,1.4H455l11.6-3.5h11.6l11.6-2.8l11.6,0.7l11.6,1.4h11.6l11.6-0.7l11.6,1.4l11.6,1.4l11.6,1.4
		l11.6,2.1l11.6-5.6l11.6,1.4h11.6l11.6,2.1 M49,485.5l11.6-21l11.6-20.3L83.8,426l11.6-9.8l11.6-7.7l11.6,1.4l11.6-4.2l11.6-4.2
		l11.6-9.1l11.6-9.8l11.6-9.8l11.6-2.1l11.6,0.7l11.6-1.4l11.6-4.9l11.6,0.7h11.6l11.6-1.4l11.6-2.1l11.6-1.4l11.6-5.6h11.6
		l11.6-2.8l11.6-3.5l11.6,1.4l11.6,1.4h11.6l11.6,3.5l11.6-4.2l11.6-2.8l11.6-1.4l11.6-0.7l11.6-5.6l11.6-4.2H455h11.6l11.6,2.1
		l11.6,3.5l11.6-2.1L513,342h11.6l11.6,0.7l11.6-2.1l11.6-2.8l11.6,1.4l11.6,0.7l11.6-2.1l11.6,2.8h11.6H629 M49,482l11.6-11.9
		l11.6-33.6l11.6-13.3l11.6-13.3l11.6-11.2l11.6-3.5l11.6-6.3l11.6-5.6l11.6,3.5L165,384l11.6-1.4l11.6-5.6l11.6,4.2l11.6-2.8
		l11.6-7.7l11.6,0.7l11.6-1.4l11.6,0.7l11.6,2.1L281,370l11.6,0.7l11.6-3.5l11.6,2.1l11.6-3.5l11.6,0.7h11.6l11.6,2.1l11.6,0.7
		l11.6,0.7l11.6-1.4l11.6,4.2l11.6-5.6h11.6l11.6,2.8l11.6,2.8l11.6-2.8l11.6-2.1l11.6-2.1l11.6,2.8L513,370l11.6,2.1l11.6-2.1
		l11.6,0.7l11.6,2.1l11.6,0.7l11.6-1.4l11.6-0.7l11.6-1.4l11.6-1.4l11.6,2.1 M49,478.5L60.6,468l11.6-8.4l11.6-14L95.4,433H107
		l11.6-14.7l11.6-11.9l11.6,1.4l11.6-9.1l11.6-1.4l11.6-0.7l11.6-2.1l11.6,4.2l11.6-4.9L223,391l11.6,0.7l11.6-0.7l11.6,1.4
		l11.6-2.1l11.6,1.4l11.6,2.1l11.6-0.7l11.6,3.5l11.6-4.9l11.6,0.7l11.6-4.9l11.6-2.1l11.6-3.5l11.6,0.7l11.6-2.1l11.6-1.4l11.6,0.7
		l11.6-2.1l11.6-0.7l11.6-2.8l11.6,0.7l11.6,2.1l11.6,0.7l11.6-2.8l11.6,1.4l11.6,0.7l11.6-7l11.6,2.8l11.6,2.1l11.6,2.8h11.6
		l11.6-1.4l11.6-3.5l11.6,2.1l11.6-1.4 M49,475l11.6-21l11.6-24.5l11.6-18.2l11.6-12.6L107,391l11.6-3.5l11.6-4.2l11.6-2.8l11.6-0.7
		l11.6,0.7l11.6,2.1l11.6-3.5l11.6-3.5l11.6-4.2l11.6,0.7l11.6-1.4l11.6,1.4l11.6-2.8l11.6-1.4l11.6-2.1l11.6-1.4l11.6,4.9l11.6-2.1
		l11.6-6.3l11.6-2.1l11.6,1.4l11.6-2.1l11.6,0.7l11.6-4.2l11.6-0.7l11.6,0.7l11.6,0.7l11.6,2.1l11.6,0.7H455h11.6l11.6-0.7l11.6-2.1
		l11.6-1.4l11.6,0.7l11.6,1.4l11.6-1.4l11.6-2.1l11.6-0.7l11.6-0.7h11.6h11.6l11.6-1.4l11.6,1.4l11.6,1.4 M49,471.5l11.6-11.2
		l11.6-24.5l11.6-15.4l11.6-6.3l11.6-1.4l11.6-1.4l11.6-7l11.6-5.6l11.6-2.8l11.6-2.1l11.6-4.2l11.6-2.1l11.6-7.7l11.6-5.6l11.6,1.4
		l11.6-0.7h11.6l11.6-2.8h11.6l11.6-1.4l11.6-4.9l11.6-1.4h11.6h11.6l11.6-2.1l11.6,2.1l11.6,2.8h11.6l11.6-2.8L397,363l11.6,1.4
		l11.6,2.1l11.6,1.4l11.6,2.1l11.6,0.7l11.6-4.2l11.6-3.5l11.6,3.5l11.6-2.1l11.6,1.4h11.6h11.6l11.6-2.8l11.6-2.8l11.6,1.4
		l11.6-0.7l11.6-2.8h11.6h11.6l11.6-1.4 M49,468l11.6-28l11.6-14.7l11.6-15.4l11.6-4.9l11.6-6.3l11.6-2.1l11.6-2.8l11.6,1.4
		l11.6-4.9l11.6-1.4l11.6-2.1l11.6,0.7h11.6l11.6,0.7l11.6,1.4l11.6-1.4l11.6-3.5l11.6,4.2l11.6-1.4l11.6-0.7l11.6,1.4l11.6,0.7
		l11.6-2.8l11.6-0.7l11.6-2.1l11.6-4.9h11.6l11.6-2.1l11.6-5.6l11.6,0.7h11.6l11.6-3.5l11.6-1.4l11.6-5.6L455,363l11.6-4.2l11.6,0.7
		l11.6,2.1l11.6,4.9l11.6-1.4l11.6-2.8l11.6,4.9l11.6,1.4l11.6,3.5l11.6,1.4l11.6,0.7l11.6,0.7l11.6,2.1l11.6,4.2l11.6-3.5
		 M49,464.5L60.6,433l11.6-22.4l11.6-13.3l11.6-6.3H107l11.6-8.4l11.6-2.1l11.6,2.1l11.6-2.1l11.6-4.9l11.6-4.9l11.6-3.5l11.6-6.3
		l11.6,3.5l11.6,0.7l11.6,2.1l11.6,0.7l11.6,0.7l11.6-2.8l11.6-1.4l11.6,1.4l11.6-1.4l11.6-3.5h11.6l11.6-0.7l11.6-2.1l11.6-2.1
		l11.6,2.1l11.6-0.7H397l11.6-1.4l11.6,2.8l11.6,0.7l11.6-2.8H455l11.6-0.7l11.6-1.4l11.6-2.1l11.6,2.8l11.6,1.4h11.6h11.6h11.6
		h11.6l11.6-4.2h11.6l11.6,4.2h11.6l11.6,2.8l11.6-2.8 M49,461l11.6-25.9l11.6-21.7l11.6-21l11.6-9.1H107l11.6-0.7l11.6-0.7
		l11.6-2.1l11.6-4.9l11.6-3.5l11.6-2.8l11.6-0.7l11.6-3.5l11.6-3.5l11.6-0.7l11.6,0.7l11.6-1.4l11.6-2.1l11.6-2.1l11.6-0.7l11.6,1.4
		l11.6-0.7l11.6-2.1l11.6-1.4l11.6-4.9l11.6,2.8l11.6,3.5l11.6-2.1l11.6-3.5l11.6,2.8l11.6,1.4l11.6-4.2l11.6,2.1l11.6,1.4l11.6,2.1
		l11.6,5.6l11.6-2.1l11.6-4.2l11.6,4.2l11.6,1.4l11.6,4.2l11.6,1.4l11.6-1.4h11.6l11.6,1.4l11.6-2.8l11.6-0.7l11.6,4.9l11.6-0.7
		l11.6,2.8 M49,457.5l11.6-11.9l11.6-25.9l11.6-11.9l11.6-7.7l11.6-8.4l11.6,1.4l11.6-0.7l11.6,1.4l11.6-7.7l11.6-2.8l11.6-1.4
		l11.6-5.6l11.6-2.1l11.6-2.1l11.6-3.5l11.6,2.1l11.6,0.7l11.6-1.4l11.6-6.3l11.6-2.8l11.6-2.1l11.6,2.1l11.6,0.7l11.6-1.4l11.6,2.1
		l11.6,4.2l11.6,4.2l11.6-2.1l11.6-4.9l11.6,1.4l11.6-0.7l11.6-0.7l11.6-1.4l11.6-4.2l11.6,0.7l11.6-2.1l11.6,2.1l11.6-4.9l11.6,2.8
		l11.6,2.1l11.6-4.2l11.6-2.1l11.6-0.7l11.6-0.7l11.6-0.7l11.6,1.4l11.6,2.1l11.6,2.8l11.6,0.7H629 M49,454l11.6-29.4L72.2,412
		l11.6-5.6l11.6-14l11.6-7.7l11.6-0.7h11.6l11.6,2.8l11.6-4.2H165l11.6-1.4l11.6,2.1l11.6-5.6l11.6,0.7l11.6-2.8l11.6-2.8l11.6-3.5
		l11.6,0.7l11.6-2.1l11.6,0.7l11.6,0.7l11.6-1.4l11.6-2.8l11.6-0.7l11.6,1.4l11.6,2.1l11.6,3.5h11.6l11.6,2.1l11.6,2.1l11.6,0.7
		l11.6-1.4l11.6-1.4l11.6,2.1l11.6-4.9l11.6,0.7l11.6-0.7h11.6l11.6-2.1L513,363l11.6-0.7l11.6-2.1l11.6-2.1l11.6-0.7l11.6-0.7h11.6
		l11.6-1.4l11.6,0.7l11.6-3.5l11.6-0.7 M49,450.5l11.6-28l11.6-18.2l11.6-3.5l11.6-9.1l11.6-4.9l11.6-3.5l11.6-4.9l11.6-1.4
		l11.6-2.1l11.6-0.7l11.6-1.4l11.6-4.2h11.6l11.6,0.7l11.6,3.5l11.6-1.4l11.6-2.8l11.6-3.5l11.6,4.2L281,370l11.6,2.8l11.6,2.1
		l11.6-3.5l11.6-1.4l11.6,0.7l11.6,0.7h11.6l11.6,2.1h11.6l11.6,1.4h11.6l11.6-3.5l11.6,0.7l11.6-2.8l11.6-2.8l11.6-2.1l11.6-2.1
		l11.6,3.5l11.6,0.7l11.6,1.4l11.6-4.2l11.6,1.4l11.6,1.4l11.6,0.7l11.6-0.7l11.6,2.8l11.6,0.7l11.6-0.7l11.6,0.7l11.6,0.7 M49,447
		l11.6-26.6l11.6-9.1l11.6-1.4l11.6-9.1l11.6-1.4l11.6-4.2l11.6-2.8l11.6-0.7l11.6-4.2l11.6-5.6l11.6-4.2h11.6l11.6-1.4l11.6,2.8
		l11.6-1.4l11.6-0.7l11.6-2.8l11.6-3.5l11.6-1.4l11.6,9.8l11.6-1.4l11.6,2.1l11.6-1.4l11.6-8.4l11.6-2.8l11.6-1.4h11.6l11.6,0.7
		l11.6-6.3l11.6-2.8l11.6,2.1l11.6-1.4l11.6-3.5l11.6-1.4l11.6-3.5l11.6,1.4h11.6l11.6-0.7l11.6-4.2l11.6-1.4l11.6,2.1l11.6,2.1
		l11.6,1.4l11.6,1.4l11.6,0.7l11.6,0.7l11.6,3.5l11.6,0.7l11.6,2.8l11.6-0.7 M49,443.5l11.6-15.4L72.2,405l11.6-12.6l11.6-7.7H107
		l11.6-3.5h11.6l11.6-7.7l11.6-2.8l11.6-7l11.6,7.7l11.6-0.7h11.6l11.6-3.5l11.6-2.1l11.6-6.3l11.6,4.2l11.6,1.4l11.6,2.1H281
		l11.6,0.7h11.6l11.6-1.4l11.6,1.4l11.6-3.5l11.6-7l11.6,2.1l11.6-2.1l11.6-2.1l11.6-1.4l11.6,3.5h11.6l11.6,2.1l11.6,2.1l11.6-2.1
		l11.6,0.7h11.6l11.6-1.4l11.6-2.1l11.6,1.4l11.6-1.4l11.6-4.9l11.6-4.9l11.6-1.4l11.6-2.1l11.6,2.1l11.6,2.8l11.6-4.9l11.6-4.9
		l11.6,1.4 M49,440l11.6-19.6l11.6-11.9l11.6-4.9l11.6-7.7l11.6-10.5l11.6-9.1h11.6l11.6-5.6l11.6,3.5l11.6,2.1l11.6-1.4l11.6-4.9
		l11.6-1.4l11.6-2.1H223l11.6-2.1l11.6,0.7l11.6,4.9l11.6-0.7L281,370h11.6l11.6,2.8l11.6-2.8l11.6,0.7l11.6-2.1l11.6,2.1l11.6,0.7
		l11.6-1.4l11.6,1.4L397,370l11.6-1.4l11.6-5.6l11.6,1.4h11.6l11.6-0.7l11.6,4.9l11.6-2.8h11.6l11.6-3.5l11.6-1.4l11.6-0.7l11.6-2.1
		h11.6l11.6-4.9l11.6,0.7l11.6-1.4h11.6l11.6-0.7h11.6l11.6,3.5 M49,436.5l11.6-22.4l11.6-4.2l11.6-13.3l11.6-4.9l11.6-4.2l11.6-4.9
		l11.6-2.1l11.6,0.7l11.6-7.7l11.6-2.1l11.6-6.3l11.6-4.2l11.6,0.7l11.6-4.2l11.6-3.5l11.6,3.5l11.6-0.7h11.6l11.6,1.4l11.6,3.5
		l11.6-1.4l11.6,1.4l11.6,2.8h11.6l11.6-2.8l11.6-2.1l11.6-2.8l11.6,2.1l11.6,2.1l11.6-1.4l11.6-4.2h11.6l11.6-2.8l11.6-4.2
		l11.6,2.8l11.6-4.2l11.6-0.7l11.6,0.7l11.6,2.8l11.6-2.1l11.6,3.5l11.6,2.8l11.6,0.7l11.6,2.8l11.6-4.2l11.6-0.7l11.6-2.8l11.6-4.2
		l11.6-4.9l11.6-0.7 M49,433l11.6-25.2l11.6-13.3l11.6-0.7l11.6-0.7H107l11.6-3.5l11.6,0.7l11.6-8.4l11.6-3.5l11.6,2.8h11.6
		l11.6-0.7l11.6-2.8l11.6,0.7l11.6,0.7l11.6-0.7l11.6-2.1h11.6l11.6-2.8l11.6-1.4l11.6-2.8l11.6-4.2h11.6l11.6,5.6l11.6,1.4
		l11.6-0.7l11.6-2.8l11.6,0.7h11.6L397,370l11.6-2.1l11.6-2.8h11.6l11.6-2.1H455l11.6-0.7l11.6-2.8l11.6-0.7l11.6,1.4H513l11.6-1.4
		h11.6l11.6,2.8l11.6-2.8l11.6-1.4l11.6-1.4l11.6,0.7l11.6-1.4l11.6,0.7l11.6,2.1 M49,429.5l11.6-27.3l11.6-14.7l11.6-11.9l11.6,0.7
		l11.6-5.6l11.6-5.6l11.6,1.4l11.6-2.1l11.6-6.3l11.6,1.4l11.6,0.7l11.6-3.5l11.6-1.4h11.6l11.6,2.8l11.6-0.7l11.6,0.7l11.6,0.7
		l11.6-1.4l11.6,0.7l11.6,0.7l11.6,1.4l11.6-0.7l11.6,1.4l11.6,4.2h11.6l11.6,0.7l11.6-2.1l11.6-0.7l11.6-2.8l11.6-0.7l11.6-3.5
		l11.6,1.4l11.6,3.5l11.6-7.7l11.6,2.8l11.6,2.8l11.6-4.2l11.6-0.7l11.6-2.1l11.6-2.8l11.6,2.8h11.6l11.6,2.8l11.6,2.1l11.6,2.1
		l11.6,0.7h11.6l11.6,1.4l11.6-0.7 M49,426l11.6-17.5l11.6-11.2l11.6-4.2l11.6-10.5l11.6-11.2l11.6,0.7l11.6,1.4l11.6-0.7l11.6-0.7
		l11.6,2.8l11.6-8.4l11.6-2.1l11.6,2.1l11.6-2.8l11.6,3.5l11.6-1.4l11.6,0.7l11.6-2.8l11.6-2.1H281l11.6-0.7l11.6,0.7l11.6,3.5
		l11.6-0.7l11.6,0.7l11.6,2.1h11.6l11.6,1.4l11.6,0.7l11.6,2.1l11.6,0.7l11.6-5.6l11.6,0.7l11.6,1.4l11.6-1.4l11.6,1.4l11.6-0.7
		l11.6-2.8l11.6-1.4l11.6-4.2l11.6,0.7l11.6,1.4l11.6-2.8l11.6,1.4l11.6-0.7l11.6-1.4l11.6-1.4l11.6-1.4l11.6-2.8L629,349 M49,422.5
		l11.6-7.7l11.6-9.8l11.6-14.7l11.6-4.2H107l11.6-5.6l11.6-2.1l11.6-4.2l11.6,0.7l11.6,3.5l11.6-4.9l11.6-2.1l11.6,4.2l11.6-0.7
		L223,377l11.6-0.7l11.6-7.7h11.6l11.6-2.8l11.6-2.1l11.6-4.2l11.6,0.7l11.6,4.2l11.6,2.1l11.6-0.7l11.6,1.4l11.6-1.4l11.6,1.4
		l11.6,2.8l11.6-4.2l11.6,3.5l11.6-4.2l11.6-2.8l11.6,0.7l11.6,0.7l11.6,0.7l11.6-4.2l11.6-5.6l11.6,1.4H513l11.6-2.8l11.6,4.9
		l11.6,2.8l11.6-2.1l11.6,1.4h11.6l11.6-2.8h11.6l11.6-1.4l11.6-2.8 M49,419l11.6-7l11.6-30.1l11.6,2.1l11.6-6.3l11.6-6.3l11.6,6.3
		l11.6,1.4l11.6-1.4h11.6l11.6,4.9l11.6,4.2l11.6-2.1l11.6-0.7l11.6,1.4l11.6,2.1l11.6-2.8h11.6l11.6,2.8l11.6-1.4l11.6-2.8
		l11.6-2.1h11.6l11.6-1.4l11.6-0.7H339l11.6,1.4l11.6-2.8l11.6,0.7l11.6-4.2l11.6-5.6l11.6-2.1l11.6,3.5l11.6-2.1l11.6-1.4l11.6,2.8
		l11.6-3.5l11.6,1.4l11.6,2.1l11.6-2.1l11.6-2.1l11.6,4.9l11.6-0.7l11.6,6.3l11.6,2.8l11.6,2.1l11.6,1.4l11.6,0.7l11.6-1.4l11.6,0.7
		l11.6,0.7 M49,415.5L60.6,391l11.6-11.9l11.6,2.1l11.6,0.7l11.6-3.5l11.6-5.6l11.6-7l11.6-2.8h11.6l11.6-2.8l11.6-3.5l11.6,4.9
		l11.6-1.4l11.6-2.8l11.6,4.2l11.6,3.5l11.6-4.9l11.6-0.7l11.6-1.4l11.6-4.2h11.6l11.6-2.1l11.6,1.4l11.6-0.7l11.6,2.8l11.6-2.8
		l11.6,7l11.6,1.4l11.6,2.8l11.6-3.5l11.6,0.7l11.6-1.4l11.6,4.2l11.6,3.5l11.6,2.1l11.6-3.5l11.6,1.4l11.6-3.5l11.6,1.4l11.6-1.4
		l11.6,0.7h11.6h11.6l11.6-1.4H571l11.6-1.4l11.6-2.8h11.6l11.6-2.1H629 M49,412l11.6,0.7l11.6-24.5l11.6-12.6l11.6-6.3H107
		l11.6,0.7l11.6-1.4l11.6-2.8l11.6-6.3l11.6-2.8l11.6-3.5l11.6,2.1l11.6,1.4l11.6,5.6l11.6,1.4l11.6-2.1l11.6-4.9l11.6,2.8l11.6,0.7
		l11.6-0.7l11.6-0.7l11.6,1.4l11.6-1.4l11.6,0.7l11.6-4.2l11.6-6.3l11.6-2.1l11.6,1.4l11.6-1.4H397l11.6-1.4l11.6-0.7l11.6,2.1
		l11.6,1.4L455,349l11.6-2.1l11.6-2.1l11.6,0.7h11.6l11.6-1.4l11.6,1.4l11.6,4.9l11.6-0.7l11.6,1.4l11.6-4.2h11.6h11.6l11.6-0.7
		l11.6,0.7l11.6,0.7 M49,408.5l11.6-39.9l11.6-17.5l11.6-7.7l11.6,2.1l11.6-0.7l11.6,2.1l11.6-2.1l11.6-6.3l11.6-4.2l11.6,4.9
		l11.6,7h11.6l11.6-2.8l11.6,0.7l11.6,3.5l11.6,1.4l11.6,4.9l11.6-3.5l11.6,4.2l11.6-4.2l11.6,0.7l11.6-4.9l11.6-0.7l11.6,2.1
		l11.6-3.5l11.6-2.8l11.6,2.1l11.6-2.8l11.6,2.1l11.6,1.4l11.6-0.7l11.6-2.1l11.6,0.7l11.6,0.7l11.6,1.4l11.6,0.7l11.6,2.8l11.6-3.5
		l11.6-1.4l11.6,1.4l11.6,1.4l11.6-4.9l11.6,4.2l11.6-0.7l11.6,0.7l11.6,2.8l11.6-2.1l11.6,2.8l11.6-2.8l11.6,2.1 M49,405l11.6-18.2
		l11.6-18.9l11.6-11.2l11.6-4.2l11.6-2.1l11.6,2.1l11.6-2.1l11.6,2.8l11.6,5.6l11.6-7l11.6,3.5h11.6l11.6,3.5h11.6l11.6,2.8
		l11.6-2.8l11.6-1.4l11.6-3.5l11.6-6.3L281,349l11.6,1.4l11.6-0.7l11.6-0.7l11.6-5.6l11.6-2.1l11.6,4.2l11.6-3.5l11.6,7l11.6,0.7
		l11.6-2.8l11.6,1.4h11.6h11.6l11.6-0.7L455,349l11.6-0.7l11.6,4.2l11.6,4.9l11.6-2.1l11.6,2.8l11.6-2.8l11.6,2.1l11.6-0.7l11.6,0.7
		l11.6-0.7l11.6,2.8l11.6-0.7l11.6-1.4l11.6-2.1l11.6-0.7 M49,401.5l11.6-4.2l11.6,0.7l11.6-5.6l11.6-2.8l11.6-4.9l11.6,4.2
		l11.6,4.9l11.6-3.5l11.6-1.4l11.6-2.8l11.6-5.6l11.6,0.7l11.6-7h11.6l11.6,1.4l11.6-1.4l11.6-2.1l11.6,0.7h11.6H281l11.6-0.7
		l11.6-1.4l11.6,2.8h11.6l11.6,0.7l11.6-2.1l11.6-2.8l11.6,2.1l11.6,0.7l11.6-4.9l11.6,4.2l11.6,1.4l11.6-1.4l11.6,2.1l11.6,2.8
		l11.6,2.1l11.6-0.7l11.6-2.8l11.6,0.7L513,377l11.6,0.7l11.6,4.2l11.6,0.7l11.6-1.4H571l11.6,0.7l11.6-2.8l11.6-0.7l11.6-3.5
		l11.6-0.7 M49,398l11.6-16.1L72.2,370h11.6l11.6-4.9l11.6-4.2l11.6-2.1l11.6-0.7l11.6-3.5l11.6-1.4l11.6,1.4h11.6l11.6-1.4
		l11.6,2.1l11.6,0.7l11.6,0.7l11.6-1.4l11.6,1.4l11.6,2.1l11.6-2.1l11.6,0.7l11.6,4.2l11.6-2.8l11.6-2.1l11.6-2.1l11.6-1.4l11.6,0.7
		l11.6,2.1l11.6-2.8l11.6-2.1l11.6-0.7l11.6-2.8h11.6l11.6,1.4l11.6,1.4l11.6-2.1l11.6,1.4l11.6,1.4l11.6,0.7l11.6-2.1l11.6-2.8
		l11.6-0.7l11.6-1.4l11.6-2.1l11.6,0.7l11.6,2.8l11.6-2.8l11.6,0.7l11.6-2.8l11.6-0.7l11.6-2.1 M49,394.5l11.6-4.2l11.6-6.3
		l11.6-4.9l11.6-9.1l11.6,1.4l11.6-2.1l11.6-4.9h11.6l11.6,2.8L165,370l11.6,6.3l11.6,2.8l11.6,0.7h11.6l11.6-4.2l11.6-0.7h11.6
		h11.6l11.6-1.4l11.6-2.8l11.6,3.5l11.6-0.7l11.6-2.1l11.6-0.7l11.6-3.5l11.6-2.1l11.6-0.7h11.6l11.6-2.8l11.6-1.4l11.6,2.8
		l11.6-0.7l11.6,2.1l11.6,2.1l11.6-2.1l11.6,1.4h11.6l11.6,2.1l11.6,1.4L513,370l11.6,1.4l11.6-1.4l11.6,1.4l11.6,0.7L571,370
		l11.6,2.1l11.6-0.7l11.6-2.8l11.6-1.4l11.6-4.9 M49,391l11.6-2.1l11.6-9.1l11.6,4.2l11.6-4.9l11.6-0.7l11.6,2.1l11.6-0.7l11.6-0.7
		l11.6-6.3H165l11.6,0.7l11.6,1.4l11.6-0.7l11.6,3.5l11.6,2.8h11.6l11.6-7l11.6,2.8h11.6l11.6-3.5l11.6-3.5l11.6,3.5l11.6-3.5
		l11.6,2.1l11.6-2.1l11.6,2.1l11.6-1.4l11.6-0.7h11.6l11.6-4.2l11.6,0.7l11.6-0.7h11.6h11.6l11.6,2.8l11.6,1.4l11.6,0.7h11.6
		l11.6,0.7L513,370l11.6-0.7l11.6,3.5l11.6,1.4l11.6-4.2l11.6,2.1l11.6-0.7l11.6-2.8l11.6-2.1l11.6-5.6H629 M49,387.5l11.6-9.8
		l11.6-3.5l11.6,5.6l11.6,1.4l11.6,1.4l11.6,5.6l11.6,3.5l11.6,4.9l11.6-9.8l11.6,3.5l11.6-4.9l11.6-2.8l11.6-12.6l11.6-1.4
		l11.6,3.5l11.6-0.7l11.6-2.1l11.6,2.1l11.6,1.4l11.6,0.7l11.6,2.8l11.6-3.5h11.6l11.6-2.8H339l11.6,2.8l11.6,3.5l11.6,4.2l11.6,0.7
		H397h11.6h11.6l11.6-3.5l11.6-0.7l11.6-1.4l11.6-0.7l11.6,0.7h11.6l11.6-2.8l11.6,0.7l11.6-2.8l11.6-2.8l11.6-2.1l11.6,0.7
		l11.6-2.1l11.6,2.1l11.6,2.8h11.6h11.6L629,370 M49,384l11.6,2.1l11.6,4.9l11.6-2.1l11.6-7l11.6-3.5l11.6-7.7l11.6-3.5l11.6,3.5
		l11.6-2.8l11.6-0.7l11.6,5.6l11.6,0.7l11.6,0.7l11.6,0.7H223l11.6-2.1l11.6,0.7l11.6-3.5l11.6-3.5l11.6-0.7l11.6,0.7l11.6-1.4
		l11.6,3.5l11.6,0.7l11.6-1.4l11.6-1.4h11.6l11.6-2.1l11.6-2.1L397,363h11.6l11.6-0.7l11.6,2.1l11.6,2.1H455h11.6l11.6-2.1l11.6-2.1
		l11.6-1.4l11.6,1.4l11.6-0.7h11.6l11.6,2.1l11.6-3.5l11.6,1.4l11.6-2.1l11.6-0.7l11.6-0.7l11.6,0.7l11.6-4.2 M49,380.5l11.6-11.9
		l11.6-6.3l11.6-1.4l11.6-0.7l11.6,1.4l11.6,4.2l11.6-3.5l11.6-2.8l11.6,0.7l11.6-7.7l11.6-0.7h11.6h11.6l11.6,0.7H223h11.6
		l11.6,4.2l11.6,2.8h11.6l11.6,1.4l11.6-0.7l11.6,1.4l11.6,2.1l11.6,2.1l11.6-0.7l11.6,0.7l11.6-0.7l11.6-1.4h11.6L397,363l11.6-1.4
		l11.6-4.2l11.6,0.7l11.6,0.7l11.6-0.7l11.6-2.8l11.6-4.2l11.6,3.5h11.6l11.6-3.5l11.6-2.8l11.6,2.8l11.6-1.4l11.6-2.8H571l11.6,6.3
		l11.6-0.7l11.6,0.7l11.6,0.7l11.6,1.4 M49,377l11.6-7l11.6-4.9l11.6,6.3l11.6-0.7l11.6,4.2h11.6l11.6-4.2l11.6-1.4l11.6-2.1
		L165,363l11.6-2.1l11.6-1.4l11.6-5.6l11.6-5.6H223l11.6,3.5l11.6,1.4l11.6,0.7l11.6-0.7l11.6,1.4l11.6-4.2h11.6l11.6,4.2l11.6,2.1
		l11.6-1.4l11.6,1.4l11.6-0.7l11.6,1.4l11.6-2.1l11.6-2.1l11.6,3.5l11.6,3.5l11.6,0.7l11.6-2.1l11.6,2.8l11.6,0.7l11.6-2.8l11.6-0.7
		l11.6-1.4l11.6,0.7l11.6-1.4l11.6-4.2l11.6,2.1h11.6l11.6-2.1l11.6-1.4l11.6,0.7l11.6,2.1l11.6-0.7l11.6-2.8 M49,373.5l11.6-2.8
		l11.6-3.5l11.6,7h11.6l11.6,4.2l11.6,1.4l11.6,1.4l11.6-6.3l11.6,4.2l11.6-2.8l11.6,0.7l11.6,1.4l11.6-3.5l11.6-2.1l11.6-2.1
		l11.6,0.7l11.6-2.8l11.6-1.4l11.6,0.7l11.6-2.1l11.6,0.7l11.6,2.1l11.6-0.7h11.6l11.6,2.8l11.6-0.7l11.6-3.5l11.6-0.7l11.6-4.9
		l11.6,5.6l11.6-4.9l11.6-2.1l11.6,1.4l11.6-0.7l11.6-0.7l11.6,1.4l11.6-7l11.6,3.5l11.6,0.7l11.6,2.8l11.6-0.7l11.6,3.5l11.6,2.1
		l11.6,2.8l11.6-2.1l11.6,0.7l11.6,4.9l11.6-2.1l11.6,0.7l11.6-1.4 M49,370l11.6-7l11.6-5.6l11.6,2.1l11.6,1.4l11.6-11.2l11.6,6.3
		l11.6,0.7l11.6,1.4l11.6,2.1l11.6-1.4l11.6,0.7l11.6-1.4l11.6-1.4l11.6,5.6l11.6,3.5l11.6-1.4h11.6l11.6-2.8l11.6-1.4l11.6-0.7
		l11.6,2.8h11.6l11.6-4.2l11.6-1.4l11.6,1.4l11.6,1.4l11.6,0.7l11.6-1.4h11.6l11.6,0.7l11.6-2.1l11.6,1.4l11.6-0.7h11.6H455
		l11.6,0.7l11.6-0.7l11.6-0.7l11.6,1.4H513l11.6-3.5l11.6,4.2l11.6,0.7l11.6,0.7l11.6,1.4l11.6-2.1l11.6-0.7l11.6,2.1l11.6,1.4
		l11.6,3.5 M49,366.5l11.6,14l11.6-4.2l11.6,0.7l11.6-4.9l11.6,2.8l11.6-0.7l11.6,1.4l11.6,4.9l11.6,1.4H165l11.6-3.5l11.6-2.1
		l11.6-2.1l11.6-2.1l11.6,1.4l11.6-2.1l11.6-0.7l11.6-0.7l11.6-2.1l11.6-1.4l11.6,2.1l11.6,0.7l11.6,4.2h11.6l11.6-0.7l11.6-2.8
		l11.6-2.8l11.6-5.6l11.6,1.4H397l11.6,0.7l11.6,0.7l11.6,1.4l11.6-0.7l11.6-1.4l11.6-1.4l11.6-2.1l11.6-2.1l11.6,0.7l11.6,1.4
		l11.6,0.7l11.6-1.4h11.6l11.6,1.4l11.6-2.8l11.6,1.4l11.6-0.7l11.6-2.8l11.6-1.4L629,356 M49,363l11.6,9.1l11.6,2.1l11.6,4.2
		l11.6-2.1l11.6-3.5l11.6,2.8l11.6-1.4l11.6-5.6l11.6,2.1l11.6-1.4h11.6h11.6l11.6,0.7l11.6-2.1L223,370l11.6-5.6h11.6l11.6-0.7
		h11.6l11.6-2.8l11.6-3.5l11.6-3.5l11.6,1.4l11.6,1.4l11.6,2.8l11.6,2.8l11.6,2.1l11.6-2.1l11.6,0.7l11.6-0.7l11.6-2.1l11.6,0.7
		l11.6-0.7h11.6l11.6,1.4l11.6-1.4l11.6-2.8h11.6l11.6-0.7l11.6-2.8l11.6-2.1l11.6-0.7l11.6-0.7l11.6-2.1l11.6-4.2l11.6,2.8
		l11.6,0.7l11.6-1.4h11.6l11.6,1.4 M49,359.5l11.6-1.4l11.6,0.7l11.6-9.1l11.6-1.4l11.6-8.4l11.6,4.9l11.6-4.9l11.6-6.3l11.6-2.8
		l11.6-1.4l11.6,1.4l11.6-2.1l11.6-3.5l11.6-3.5l11.6,5.6l11.6,4.2l11.6,2.8l11.6,2.8l11.6,2.1H281l11.6-0.7h11.6l11.6,2.8l11.6,2.1
		l11.6-2.8h11.6l11.6-1.4l11.6,4.9l11.6-0.7l11.6-0.7l11.6,1.4l11.6-2.8l11.6-1.4l11.6-1.4l11.6,0.7l11.6-3.5h11.6l11.6,1.4h11.6
		l11.6,3.5l11.6,1.4l11.6,1.4l11.6,0.7l11.6,2.8l11.6,1.4l11.6,2.8l11.6,2.1l11.6,1.4h11.6l11.6,0.7 M49,356l11.6-5.6l11.6-2.1
		l11.6,4.2l11.6-3.5l11.6,6.3l11.6-1.4l11.6,1.4l11.6-3.5l11.6,2.8l11.6-1.4l11.6,0.7l11.6-1.4h11.6h11.6l11.6,4.9l11.6,2.8
		l11.6-2.8l11.6,1.4l11.6-1.4H281l11.6-2.1h11.6l11.6-2.1l11.6-2.1L339,349l11.6-0.7l11.6,0.7l11.6-1.4l11.6-1.4l11.6-3.5h11.6
		l11.6,2.1h11.6l11.6-2.1l11.6,2.1l11.6,2.1l11.6,1.4l11.6,0.7l11.6,2.8l11.6-5.6l11.6-0.7l11.6-0.7l11.6-2.8h11.6l11.6-3.5
		l11.6-0.7l11.6,0.7l11.6-3.5l11.6,1.4H629 M49,352.5l11.6,2.8h11.6l11.6,4.9l11.6,2.8l11.6-2.8l11.6-0.7l11.6,2.8l11.6-2.8
		l11.6,2.1l11.6,4.9h11.6l11.6,1.4l11.6-2.1l11.6-4.2l11.6,0.7l11.6,2.1l11.6,2.1l11.6,1.4l11.6,2.8l11.6-2.8l11.6-6.3l11.6,1.4
		l11.6-2.1l11.6-2.1l11.6-1.4l11.6,4.2l11.6,3.5l11.6,1.4l11.6-2.8L397,363l11.6,1.4l11.6-2.8l11.6-0.7l11.6-1.4l11.6-1.4l11.6,7
		l11.6,2.8l11.6,0.7l11.6,0.7l11.6-1.4l11.6,1.4l11.6-0.7l11.6-3.5l11.6,3.5l11.6,2.1l11.6,1.4l11.6-2.1l11.6-1.4l11.6-2.8H629
		 M49,349l11.6,1.4l11.6-6.3l11.6,5.6l11.6,9.8H107l11.6-4.2l11.6,6.3l11.6,1.4l11.6,2.8l11.6-7.7l11.6-0.7l11.6-1.4l11.6,1.4
		l11.6-1.4l11.6,1.4l11.6,4.2l11.6-0.7h11.6h11.6l11.6,4.2l11.6-2.1l11.6-3.5l11.6,1.4h11.6l11.6,2.8l11.6-1.4l11.6,0.7l11.6-2.8
		l11.6-2.8l11.6-2.1l11.6,2.1l11.6-3.5l11.6-0.7l11.6,0.7l11.6-0.7l11.6,1.4l11.6-1.4l11.6,4.9h11.6l11.6-1.4l11.6-4.9l11.6,2.8
		l11.6-1.4l11.6,2.1l11.6-0.7l11.6-2.8l11.6,1.4l11.6,1.4l11.6-1.4l11.6,2.1 M49,345.5l11.6,14l11.6-9.8l11.6,9.8h11.6l11.6-2.8
		l11.6-4.2l11.6,0.7h11.6l11.6,3.5l11.6-4.2l11.6,2.1l11.6-3.5l11.6-8.4l11.6,2.1H223l11.6,0.7l11.6,1.4l11.6,3.5l11.6,1.4l11.6-0.7
		h11.6l11.6-1.4h11.6l11.6,0.7l11.6-2.8l11.6-5.6l11.6-0.7l11.6,1.4l11.6,2.1L397,342l11.6,2.1l11.6-2.1l11.6-0.7l11.6-2.8l11.6-0.7
		l11.6,2.1l11.6,2.8l11.6,7l11.6,0.7l11.6-3.5l11.6-2.8l11.6-2.8l11.6,2.1l11.6,1.4l11.6,0.7l11.6,0.7l11.6-4.9l11.6,2.8l11.6,0.7
		l11.6-0.7 M49,342l11.6,2.8l11.6,4.9l11.6-3.5l11.6-3.5H107l11.6-5.6l11.6-2.8l11.6,2.8l11.6-4.2l11.6,3.5l11.6,7l11.6-2.1h11.6
		l11.6,2.8l11.6,4.2l11.6,2.8l11.6-2.8h11.6l11.6,3.5l11.6,0.7l11.6,0.7l11.6-2.8l11.6,3.5h11.6l11.6-1.4l11.6-2.1l11.6-2.8
		l11.6,5.6l11.6,0.7l11.6,1.4l11.6,2.8l11.6-1.4l11.6,0.7l11.6,1.4l11.6,1.4l11.6,0.7l11.6-4.2l11.6,1.4h11.6l11.6-1.4l11.6-1.4
		h11.6l11.6-1.4l11.6-1.4l11.6,2.1l11.6-0.7h11.6l11.6-1.4l11.6,1.4l11.6,0.7 M49,338.5l11.6,3.5l11.6-6.3l11.6-6.3l11.6-2.1
		l11.6,1.4l11.6,3.5l11.6,4.2l11.6,4.9l11.6,4.9l11.6-4.9l11.6-2.1l11.6,3.5h11.6l11.6,4.2l11.6,0.7l11.6,1.4l11.6,2.1l11.6-7
		l11.6,0.7H281l11.6-4.2l11.6,4.2l11.6,4.9l11.6-0.7l11.6,0.7l11.6-1.4l11.6,3.5l11.6,3.5l11.6-0.7H397l11.6,4.2l11.6-1.4l11.6,0.7
		h11.6l11.6,1.4l11.6,1.4l11.6,2.8l11.6-1.4l11.6-2.1l11.6,3.5l11.6-3.5l11.6,2.1l11.6,0.7h11.6l11.6-0.7h11.6l11.6-2.8l11.6,1.4
		l11.6-2.1l11.6,3.5 M49,335l11.6-2.8l11.6-6.3l11.6,10.5l11.6,6.3l11.6-2.1l11.6,4.2h11.6l11.6,4.2l11.6,2.8H165l11.6,4.9l11.6-1.4
		l11.6,1.4l11.6,0.7l11.6,2.1l11.6,0.7h11.6l11.6-4.2h11.6l11.6-2.1l11.6-0.7l11.6-0.7h11.6l11.6,3.5H339l11.6,1.4l11.6-0.7
		l11.6,0.7h11.6l11.6-0.7l11.6,1.4l11.6-3.5l11.6,2.1l11.6-2.8H455l11.6,4.2l11.6,7.7l11.6,3.5l11.6-1.4l11.6-0.7l11.6-0.7l11.6,2.1
		l11.6,2.1l11.6,0.7l11.6-2.8l11.6-1.4l11.6-1.4l11.6-0.7l11.6-0.7l11.6-0.7 M49,331.5l11.6,28l11.6,4.9l11.6,4.2l11.6,2.8l11.6,1.4
		l11.6,0.7l11.6,2.1l11.6,0.7l11.6-0.7L165,377l11.6,1.4l11.6-1.4l11.6-1.4l11.6,2.1l11.6-4.9l11.6-1.4l11.6,2.1l11.6-2.8l11.6-0.7
		l11.6-4.9l11.6,2.1l11.6,1.4l11.6,2.1l11.6,2.8l11.6-1.4l11.6-2.1l11.6,0.7l11.6,2.1l11.6,1.4l11.6-2.8l11.6,2.8l11.6,2.1l11.6-4.2
		l11.6-0.7l11.6-7l11.6,0.7l11.6-4.9l11.6-2.1l11.6-3.5l11.6-1.4l11.6,3.5l11.6,1.4l11.6,4.2l11.6,5.6H571l11.6-2.8l11.6-1.4
		l11.6-0.7l11.6,0.7L629,363 M49,328l11.6,4.2l11.6,4.9l11.6,14L95.4,363l11.6-2.8l11.6-4.9l11.6,2.8l11.6,0.7l11.6,4.9H165
		l11.6,1.4l11.6,3.5l11.6-1.4h11.6l11.6,0.7l11.6,1.4l11.6-1.4l11.6,1.4l11.6,2.8l11.6,1.4h11.6l11.6,2.1l11.6-4.9l11.6-1.4
		l11.6-2.8l11.6-2.1l11.6,1.4l11.6-2.1h11.6l11.6-1.4l11.6,0.7l11.6-4.2l11.6-0.7h11.6l11.6-2.8l11.6,3.5l11.6,2.8l11.6-1.4h11.6
		l11.6-2.1l11.6-2.1l11.6-1.4l11.6,3.5l11.6,2.1l11.6,3.5l11.6-0.7l11.6-0.7l11.6,4.2l11.6,2.1l11.6-0.7 M49,324.5l11.6,22.4
		l11.6,7.7l11.6,5.6l11.6-4.2l11.6-0.7l11.6,2.1l11.6,3.5l11.6-5.6l11.6,0.7l11.6-2.8l11.6,1.4l11.6,1.4l11.6-2.8l11.6,1.4l11.6,2.1
		l11.6,2.1l11.6,2.8l11.6-4.2l11.6-3.5l11.6,4.9l11.6,4.2l11.6,2.1l11.6-1.4l11.6-0.7l11.6,0.7l11.6,2.1l11.6,0.7l11.6-4.9l11.6,0.7
		l11.6,2.8l11.6,0.7l11.6,0.7l11.6-3.5l11.6,0.7L455,363l11.6-2.1l11.6,0.7h11.6h11.6l11.6-2.8l11.6,2.1l11.6-2.8l11.6,2.8l11.6,1.4
		l11.6,2.8l11.6-2.8l11.6-1.4l11.6-1.4l11.6,3.5l11.6-2.1 M49,321l11.6,0.7l11.6-5.6l11.6,12.6l11.6-3.5H107l11.6-2.1l11.6,1.4
		l11.6,8.4l11.6,7.7l11.6-2.8h11.6l11.6,5.6l11.6,4.2l11.6,3.5l11.6,1.4l11.6,1.4l11.6-2.8l11.6,7.7l11.6,1.4L281,363l11.6,0.7
		l11.6-2.8l11.6,2.1l11.6,0.7L339,363l11.6-1.4h11.6l11.6,0.7h11.6H397l11.6,2.8l11.6,0.7l11.6-1.4l11.6-1.4l11.6,0.7l11.6-0.7
		l11.6-2.8h11.6h11.6l11.6-2.1h11.6l11.6,2.1l11.6,0.7l11.6-2.8L571,356l11.6,2.1l11.6,1.4l11.6,0.7l11.6,0.7l11.6,2.8 M49,317.5
		l11.6,11.9l11.6,3.5l11.6,4.2l11.6,6.3L107,335l11.6,0.7l11.6,0.7l11.6,3.5l11.6-2.8H165l11.6,1.4l11.6,0.7l11.6-2.8l11.6,1.4
		l11.6,0.7l11.6,0.7l11.6,2.1l11.6-0.7l11.6-2.1l11.6,1.4l11.6-1.4l11.6-3.5l11.6,0.7l11.6-0.7l11.6,0.7l11.6,4.2l11.6-2.1l11.6-2.8
		l11.6,3.5l11.6-2.1l11.6-4.9l11.6,2.8l11.6,1.4l11.6-1.4l11.6,1.4l11.6-1.4l11.6,1.4l11.6,2.8l11.6,0.7H513h11.6l11.6,0.7l11.6-0.7
		l11.6,0.7l11.6,0.7l11.6,0.7l11.6,0.7h11.6l11.6,0.7l11.6,3.5 M49,314l11.6,9.1L72.2,335l11.6,9.8h11.6H107l11.6,1.4l11.6-1.4
		l11.6-0.7l11.6,3.5H165l11.6-1.4l11.6,3.5l11.6,2.8l11.6-4.2l11.6,2.1l11.6-0.7h11.6h11.6h11.6l11.6,0.7l11.6-6.3l11.6,0.7
		l11.6-0.7h11.6H339l11.6,4.9l11.6,2.8l11.6-4.2l11.6,4.9l11.6,2.1l11.6-0.7l11.6-1.4l11.6,4.2l11.6-4.2l11.6,1.4l11.6-2.1l11.6,4.2
		l11.6,2.1h11.6l11.6-0.7l11.6-2.1l11.6,2.1l11.6-3.5l11.6-2.8l11.6,3.5l11.6-1.4l11.6-2.1l11.6-2.8h11.6H629 M49,310.5l11.6,19.6
		l11.6,9.1l11.6,2.8l11.6,5.6l11.6,0.7l11.6,4.2l11.6,1.4h11.6l11.6,2.8l11.6,1.4l11.6-2.8l11.6-0.7l11.6,1.4l11.6,3.5l11.6-0.7
		l11.6,0.7l11.6-2.1l11.6-1.4l11.6-1.4l11.6-0.7l11.6,0.7l11.6-3.5l11.6,0.7l11.6-2.1l11.6,2.8l11.6,2.8l11.6,2.8l11.6-1.4l11.6,2.1
		l11.6,0.7h11.6l11.6-2.1l11.6-1.4l11.6-3.5l11.6,2.1l11.6-1.4l11.6-1.4l11.6-0.7l11.6-2.8L513,349l11.6,0.7l11.6,2.1l11.6,2.8h11.6
		l11.6,4.9l11.6,3.5l11.6,0.7l11.6-0.7l11.6,0.7l11.6,1.4 M49,307l11.6,21l11.6,12.6l11.6,6.3l11.6,9.8l11.6,4.9l11.6-3.5l11.6-0.7
		l11.6,0.7l11.6,4.2H165h11.6l11.6-2.1l11.6,4.2l11.6,2.1l11.6-4.2l11.6-0.7l11.6,0.7l11.6-1.4l11.6-2.8L281,356l11.6,1.4l11.6,0.7
		h11.6l11.6,0.7l11.6,3.5l11.6,3.5l11.6,2.8l11.6,1.4l11.6,2.8l11.6-2.1h11.6l11.6-0.7l11.6,0.7l11.6-0.7H455h11.6l11.6,2.1
		l11.6,2.1l11.6,0.7l11.6-0.7l11.6-2.1l11.6,1.4l11.6,4.2l11.6,0.7l11.6,0.7l11.6-2.8l11.6,5.6l11.6,1.4l11.6,2.8l11.6,0.7
		 M49,303.5l11.6,39.2l11.6,18.2l11.6,1.4l11.6-4.9H107l11.6-5.6l11.6,5.6l11.6,2.8l11.6,4.9l11.6,2.8l11.6,5.6h11.6l11.6-0.7
		l11.6-2.8l11.6-0.7h11.6l11.6-2.8l11.6-3.5l11.6,4.2l11.6,1.4l11.6,2.1l11.6-2.1l11.6-3.5l11.6,1.4l11.6,1.4l11.6-0.7l11.6-4.9
		l11.6-1.4h11.6H397l11.6,2.8l11.6,2.1l11.6,2.1l11.6-2.1l11.6-2.1l11.6,2.8l11.6,2.1l11.6,4.9l11.6-0.7l11.6-1.4l11.6-2.8h11.6
		l11.6,4.2l11.6-0.7H571h11.6l11.6-0.7h11.6l11.6,2.8l11.6-3.5 M49,300l11.6,31.5l11.6,9.8l11.6,13.3l11.6,6.3l11.6-1.4l11.6-0.7
		l11.6-0.7l11.6-2.8l11.6,0.7l11.6,3.5h11.6l11.6,3.5l11.6-4.9l11.6-0.7l11.6-4.9l11.6,2.1l11.6,0.7l11.6-3.5l11.6,4.2l11.6-4.2
		l11.6-0.7l11.6,1.4l11.6,0.7l11.6,1.4l11.6,3.5l11.6-1.4l11.6,2.8l11.6,3.5l11.6,1.4l11.6-2.1l11.6-0.7l11.6-1.4l11.6-2.1h11.6
		l11.6-2.8l11.6,1.4h11.6l11.6,0.7l11.6-0.7l11.6,2.8l11.6-0.7l11.6-2.1l11.6-2.1l11.6-2.8H571l11.6-1.4l11.6,2.8l11.6,0.7l11.6-1.4
		L629,349 M49,296.5l11.6,21l11.6,14.7l11.6,8.4l11.6,9.1H107l11.6-9.8l11.6,1.4l11.6-0.7l11.6-0.7l11.6,4.2l11.6-6.3l11.6-5.6
		l11.6,2.8l11.6,6.3l11.6-0.7l11.6,4.2l11.6-4.9l11.6-0.7l11.6-2.1l11.6,2.1l11.6,1.4h11.6l11.6,1.4h11.6l11.6,4.2l11.6,2.1
		l11.6,1.4l11.6-0.7l11.6-0.7l11.6-0.7l11.6,2.8h11.6l11.6,0.7h11.6L455,349h11.6l11.6-0.7h11.6l11.6-0.7L513,349l11.6,2.1l11.6,0.7
		l11.6-2.1l11.6-1.4l11.6-0.7l11.6,0.7l11.6-2.8l11.6,1.4l11.6-0.7l11.6-3.5 M49,293l11.6,26.6l11.6,3.5l11.6,6.3l11.6,6.3l11.6,4.2
		h11.6l11.6-0.7l11.6,1.4l11.6,3.5l11.6-0.7l11.6-0.7l11.6,1.4l11.6,1.4l11.6,3.5l11.6-4.9l11.6,6.3l11.6,2.1l11.6-2.1l11.6,1.4
		l11.6-7.7l11.6-2.8l11.6-5.6l11.6-2.1l11.6,2.8l11.6-0.7l11.6,2.1l11.6,4.9l11.6,1.4l11.6,1.4l11.6,2.1l11.6-1.4l11.6,4.2l11.6-0.7
		l11.6-3.5l11.6-1.4l11.6-5.6l11.6,1.4l11.6-2.8l11.6,2.1l11.6-1.4l11.6,1.4l11.6,1.4l11.6,2.1l11.6-2.1l11.6,2.8l11.6-2.1l11.6,0.7
		l11.6-2.8l11.6,4.9H629 M49,289.5l11.6,28l11.6,19.6l11.6,6.3l11.6,5.6l11.6-0.7l11.6,4.9l11.6,1.4l11.6,0.7l11.6,0.7H165l11.6-0.7
		l11.6-0.7l11.6-3.5l11.6-0.7l11.6,0.7l11.6-1.4l11.6,2.1l11.6,2.1l11.6,6.3l11.6,2.1l11.6-2.8l11.6,2.8l11.6,1.4l11.6-4.2l11.6-2.8
		l11.6,0.7l11.6-1.4l11.6-1.4l11.6,0.7l11.6,3.5l11.6,3.5l11.6-0.7l11.6,3.5h11.6H455l11.6-1.4l11.6,1.4l11.6-2.8h11.6l11.6-1.4
		l11.6,2.8l11.6-0.7l11.6-6.3l11.6,2.1l11.6-2.1l11.6-1.4h11.6l11.6-2.8l11.6-0.7l11.6,0.7 M49,286l11.6,20.3l11.6,11.2l11.6,9.8
		l11.6,0.7l11.6,10.5l11.6,2.1l11.6,6.3h11.6l11.6,0.7l11.6-0.7l11.6,2.8l11.6,0.7l11.6,0.7l11.6-4.2l11.6-3.5l11.6,7l11.6-1.4
		l11.6-0.7l11.6-0.7H281l11.6,5.6l11.6,2.8l11.6-4.9l11.6-2.1l11.6,2.8l11.6-1.4l11.6,0.7l11.6-2.8l11.6,2.8L397,349l11.6,4.2h11.6
		l11.6,2.1l11.6-0.7L455,356l11.6,0.7l11.6,2.1l11.6,4.9l11.6,2.8L513,370l11.6,4.2l11.6,1.4l11.6,2.8l11.6,2.8H571l11.6-2.1
		l11.6,0.7l11.6-0.7l11.6-2.8l11.6-2.1 M49,282.5l11.6,47.6l11.6,4.2l11.6-0.7l11.6,13.3l11.6-0.7l11.6,1.4l11.6,0.7l11.6-2.8
		l11.6-4.2l11.6,1.4h11.6l11.6,2.8l11.6,3.5l11.6,2.1l11.6,4.2l11.6-0.7h11.6l11.6-2.1l11.6-0.7l11.6-0.7l11.6,3.5l11.6-2.8
		l11.6,3.5l11.6,4.2l11.6,2.8l11.6,2.1l11.6-2.1l11.6-1.4l11.6-0.7l11.6,2.1l11.6-0.7l11.6,1.4l11.6,0.7l11.6-2.8l11.6-1.4h11.6
		h11.6l11.6,4.9l11.6-0.7l11.6-5.6l11.6-1.4h11.6l11.6-2.8l11.6-2.1l11.6,1.4l11.6,2.1l11.6,3.5l11.6,4.9l11.6,2.1l11.6-0.7 M49,279
		l11.6,32.2l11.6,9.1l11.6,5.6l11.6,8.4l11.6,2.8l11.6-2.1l11.6,5.6l11.6,2.1l11.6,2.1l11.6,2.1l11.6-1.4l11.6,1.4l11.6-1.4
		l11.6-2.1l11.6,4.9l11.6-0.7l11.6-4.2l11.6-3.5l11.6,4.2l11.6-2.8l11.6-2.1l11.6,2.8l11.6,0.7l11.6-1.4L339,342l11.6,2.1l11.6,1.4
		l11.6,3.5l11.6,0.7L397,349l11.6-0.7l11.6,0.7l11.6-1.4l11.6-0.7l11.6-1.4l11.6-0.7l11.6,1.4l11.6,1.4l11.6-2.1H513l11.6-2.1
		l11.6,2.1l11.6,2.1l11.6-2.8l11.6,2.1l11.6-2.8h11.6l11.6,1.4l11.6,4.2l11.6,3.5 M49,275.5l11.6,35.7l11.6,8.4l11.6,0.7l11.6,11.2
		l11.6,4.2l11.6-2.8l11.6,3.5l11.6,9.1l11.6,1.4l11.6,3.5l11.6-0.7l11.6-7.7l11.6-2.1l11.6,7l11.6-2.1l11.6,1.4l11.6-0.7l11.6,4.9
		l11.6,6.3H281l11.6-0.7h11.6l11.6,1.4l11.6,0.7l11.6-3.5l11.6-2.8l11.6,1.4l11.6-0.7l11.6,1.4l11.6,1.4l11.6,1.4l11.6,4.2l11.6,4.9
		l11.6,0.7l11.6,4.2l11.6,4.9l11.6,5.6l11.6-4.2l11.6-2.1l11.6,0.7l11.6-1.4l11.6,2.8l11.6-1.4l11.6-4.2H571l11.6-1.4h11.6l11.6,0.7
		l11.6-0.7l11.6-1.4 M49,272l11.6,38.5l11.6,30.1l11.6,7.7l11.6,3.5l11.6-2.1l11.6,2.1l11.6,1.4l11.6,0.7l11.6-0.7l11.6-1.4
		l11.6,6.3l11.6-2.1l11.6-0.7l11.6,1.4l11.6-1.4l11.6-5.6l11.6-0.7h11.6l11.6-4.2l11.6,2.1l11.6-3.5l11.6,2.1h11.6l11.6,1.4
		l11.6-1.4l11.6,2.1h11.6l11.6-1.4l11.6,1.4l11.6-1.4l11.6,2.1l11.6,0.7l11.6-1.4l11.6,0.7l11.6,2.1l11.6,2.1l11.6,4.2l11.6,3.5
		h11.6l11.6-0.7l11.6,0.7l11.6-0.7l11.6,3.5l11.6-0.7l11.6,3.5l11.6,4.2l11.6,2.8l11.6-2.8l11.6-2.8l11.6-2.1 M49,268.5L60.6,314
		l11.6,11.2l11.6-0.7l11.6,6.3l11.6,6.3l11.6,4.2l11.6,4.2l11.6,3.5l11.6-2.8l11.6,0.7l11.6,2.1l11.6-0.7l11.6,0.7h11.6l11.6,7.7
		l11.6-1.4l11.6,4.2l11.6-2.1l11.6-1.4l11.6,1.4l11.6,2.1l11.6,1.4l11.6-2.1l11.6-2.8l11.6-0.7l11.6-2.1l11.6-2.8l11.6-7l11.6,6.3
		l11.6-1.4l11.6,0.7l11.6,5.6l11.6,2.8l11.6-5.6H455l11.6-2.1l11.6,3.5l11.6,2.1l11.6,5.6l11.6-2.1l11.6,0.7l11.6,0.7l11.6,2.1
		l11.6,1.4l11.6-1.4l11.6,1.4l11.6,4.2l11.6-0.7l11.6,1.4l11.6,2.1 M49,265l11.6,25.2l11.6,11.9l11.6,6.3l11.6,7.7l11.6,7l11.6,2.1
		l11.6-4.9l11.6,4.9h11.6l11.6,4.2h11.6l11.6,4.2h11.6l11.6,0.7H223l11.6,2.1l11.6-0.7h11.6l11.6-3.5l11.6,4.2l11.6,7l11.6,0.7
		l11.6,3.5l11.6,1.4l11.6-0.7l11.6-9.1l11.6,0.7l11.6-3.5l11.6-1.4l11.6-1.4h11.6l11.6,1.4l11.6-0.7l11.6,2.8l11.6,0.7l11.6,2.8
		h11.6l11.6,0.7l11.6-2.1l11.6,0.7l11.6-3.5l11.6-1.4l11.6-2.8l11.6,6.3l11.6,4.9h11.6l11.6-2.1l11.6,0.7l11.6-1.4H629 M49,261.5
		L60.6,307l11.6,28l11.6-2.8l11.6,7.7l11.6-7.7l11.6,2.1l11.6,6.3l11.6,2.8l11.6,3.5l11.6,0.7l11.6,3.5l11.6,4.2l11.6,7.7l11.6,1.4
		l11.6-0.7l11.6,2.8l11.6,0.7l11.6-1.4l11.6,4.9l11.6-4.2h11.6l11.6-2.8l11.6,2.1h11.6l11.6,2.1l11.6-2.8l11.6,2.1l11.6,1.4
		l11.6,2.8l11.6-2.1l11.6,4.2l11.6-3.5l11.6,2.8l11.6,0.7l11.6-0.7l11.6-2.1l11.6-2.1l11.6,4.2l11.6,3.5L513,377l11.6-4.2l11.6,2.8
		l11.6,2.8l11.6,0.7l11.6,1.4l11.6,0.7l11.6-0.7l11.6,0.7l11.6,1.4L629,377 M49,258l11.6,47.6l11.6,7l11.6,9.1l11.6,11.9l11.6-2.1
		l11.6,0.7l11.6,2.1l11.6-0.7l11.6,4.2l11.6-0.7l11.6,1.4l11.6-2.1l11.6,4.2l11.6,2.1l11.6,5.6l11.6-1.4l11.6-0.7l11.6,2.1l11.6,2.1
		l11.6,1.4l11.6,2.8l11.6,2.8l11.6,0.7h11.6l11.6-3.5l11.6-1.4l11.6,2.8l11.6-4.2l11.6-2.8l11.6-2.1l11.6-2.1l11.6,1.4l11.6-2.1
		h11.6l11.6,0.7l11.6-2.8l11.6,0.7l11.6-0.7l11.6-1.4l11.6,2.1l11.6-1.4l11.6,1.4l11.6-0.7l11.6,4.2l11.6-0.7l11.6,0.7l11.6-2.1
		l11.6,2.1l11.6,1.4l11.6,0.7 M49,254.5l11.6,41.3l11.6,17.5l11.6,20.3l11.6,7l11.6,2.1h11.6l11.6-3.5l11.6,2.1l11.6-6.3l11.6-2.1
		h11.6l11.6,2.1l11.6,2.1l11.6-1.4l11.6,2.8l11.6,3.5l11.6,6.3l11.6-2.8l11.6,1.4l11.6,3.5l11.6,6.3l11.6-1.4l11.6,2.1l11.6-1.4
		l11.6-1.4l11.6,0.7l11.6,4.2l11.6-1.4l11.6,1.4H397l11.6,3.5l11.6-1.4l11.6,3.5l11.6,2.8H455l11.6-1.4l11.6,2.8l11.6,0.7l11.6-4.2
		l11.6,2.1l11.6,1.4h11.6l11.6,1.4l11.6-3.5l11.6-2.1l11.6,0.7h11.6l11.6-0.7l11.6,0.7H629 M49,251l11.6,53.2l11.6,7l11.6,4.9
		l11.6,13.3l11.6-2.1l11.6,2.1l11.6,7.7l11.6,4.2l11.6,6.3l11.6,0.7l11.6,1.4l11.6-0.7l11.6-2.1l11.6-4.2l11.6,2.8l11.6,0.7
		l11.6-4.2l11.6,2.1l11.6,1.4l11.6,4.2l11.6-1.4l11.6-1.4l11.6-1.4l11.6,3.5l11.6,4.9h11.6l11.6-1.4l11.6,0.7h11.6H397h11.6
		l11.6-1.4l11.6,0.7h11.6l11.6-0.7h11.6l11.6-0.7l11.6,0.7l11.6,2.1l11.6,4.2l11.6-2.1l11.6,2.8l11.6-2.1l11.6,4.9l11.6-2.8
		l11.6-0.7h11.6l11.6-0.7l11.6,1.4l11.6,2.8 M49,247.5l11.6,53.2l11.6,7.7l11.6,15.4l11.6,0.7l11.6,8.4l11.6,7l11.6,5.6l11.6-4.2
		h11.6l11.6-2.1l11.6,2.8l11.6,0.7l11.6,2.1h11.6L223,349l11.6,1.4l11.6,2.8l11.6,0.7h11.6l11.6,4.2l11.6,2.1l11.6-1.4l11.6-0.7
		l11.6-0.7H339l11.6-3.5l11.6-0.7l11.6,3.5h11.6H397l11.6-2.1l11.6-1.4l11.6,1.4l11.6,0.7L455,356l11.6,0.7l11.6,5.6l11.6-1.4
		l11.6-0.7l11.6,0.7l11.6-0.7l11.6,2.1l11.6,3.5l11.6,2.1l11.6,1.4l11.6,1.4l11.6-2.1l11.6,1.4h11.6H629 M49,244l11.6,39.2
		l11.6,16.1l11.6,11.2l11.6,8.4l11.6,7.7l11.6,9.1l11.6,2.1l11.6,3.5l11.6,1.4l11.6,1.4l11.6-2.1l11.6,3.5l11.6,3.5l11.6-2.1
		L223,349l11.6-3.5l11.6,0.7l11.6-0.7l11.6-2.8l11.6,0.7l11.6,3.5l11.6,0.7l11.6-0.7l11.6,2.1l11.6-4.9l11.6,1.4h11.6l11.6-1.4
		l11.6-0.7l11.6-2.1l11.6,2.1l11.6-2.8h11.6l11.6-1.4l11.6,0.7l11.6,3.5l11.6-0.7l11.6-0.7l11.6-0.7l11.6,1.4l11.6-0.7h11.6
		l11.6-2.1h11.6H571l11.6,0.7l11.6,4.2h11.6l11.6-2.1l11.6-2.1 M49,240.5l11.6,51.1l11.6,23.1l11.6,2.1l11.6,4.9l11.6,5.6l11.6,1.4
		l11.6,4.2l11.6,0.7l11.6-0.7l11.6-5.6l11.6,7.7l11.6,1.4h11.6l11.6,2.8l11.6,4.9l11.6-1.4l11.6,0.7l11.6-2.1l11.6,3.5L281,342
		l11.6,2.8l11.6-2.1l11.6,3.5l11.6,1.4l11.6-1.4l11.6,0.7l11.6,2.8l11.6-0.7l11.6,2.8l11.6,0.7l11.6-1.4l11.6-1.4l11.6,5.6l11.6,2.1
		l11.6,0.7l11.6,2.1l11.6-4.2h11.6l11.6-3.5l11.6-2.1l11.6-2.8l11.6-0.7l11.6,2.1l11.6-1.4H571l11.6,1.4l11.6,0.7l11.6-0.7l11.6-0.7
		l11.6,4.2 M49,237l11.6,51.1l11.6,17.5l11.6,11.2l11.6,11.9l11.6,2.8l11.6-3.5l11.6,7l11.6,2.1l11.6,4.2l11.6,2.1h11.6l11.6,4.2
		l11.6-0.7l11.6,2.8L223,349l11.6-2.1l11.6-0.7l11.6,0.7l11.6-2.1l11.6-3.5l11.6,2.8l11.6-3.5h11.6l11.6-2.8l11.6,2.8l11.6,1.4
		l11.6,1.4l11.6,2.1h11.6l11.6-0.7l11.6,0.7l11.6,3.5h11.6l11.6-3.5l11.6,2.1l11.6,0.7l11.6-1.4l11.6,0.7l11.6-2.8H513l11.6,2.1
		l11.6,3.5l11.6,2.1l11.6-2.1l11.6-6.3l11.6,0.7l11.6,0.7l11.6,2.1l11.6-1.4H629 M49,233.5L60.6,293l11.6,23.8l11.6,4.9l11.6,7
		l11.6-1.4l11.6,5.6l11.6-4.2l11.6,3.5l11.6,6.3l11.6-0.7l11.6,4.9l11.6,1.4l11.6,2.8l11.6-0.7l11.6,0.7l11.6,4.2l11.6,2.1l11.6-2.8
		l11.6-1.4l11.6,5.6l11.6,2.1l11.6-2.1l11.6-0.7l11.6-0.7H339h11.6h11.6h11.6h11.6H397h11.6h11.6h11.6h11.6H455h11.6h11.6h11.6h11.6
		H513h11.6h11.6h11.6h11.6H571h11.6h11.6h11.6h11.6H629 M49,230l11.6,56.7l11.6,23.8l11.6,29.4l11.6,9.1l11.6,11.2l11.6,3.5h11.6
		l11.6,2.1l11.6-2.1l11.6,4.2l11.6,2.1l11.6,2.8l11.6-1.4l11.6-0.7l11.6,1.4l11.6,1.4h11.6l11.6,7.7l11.6,2.1l11.6,1.4l11.6,1.4
		l11.6-0.7l11.6-1.4l11.6-2.1L339,384l11.6-2.8h11.6l11.6-2.1l11.6-0.7l11.6-0.7h11.6l11.6-2.1l11.6,4.9l11.6-1.4H455l11.6-0.7
		l11.6-2.1l11.6,0.7l11.6-4.2L513,370h11.6l11.6,3.5l11.6-4.2l11.6,1.4l11.6,0.7l11.6,2.1l11.6-2.1h11.6l11.6-2.1l11.6,2.1
		 M49,226.5L60.6,300l11.6,20.3l11.6,16.1l11.6,3.5l11.6,1.4l11.6,4.9l11.6,1.4l11.6,4.9l11.6,4.9l11.6,0.7l11.6-2.1l11.6,0.7
		l11.6,3.5l11.6,1.4l11.6-2.8l11.6-6.3h11.6l11.6,3.5l11.6,1.4l11.6-0.7l11.6,0.7l11.6,1.4l11.6,6.3l11.6-0.7l11.6-0.7l11.6,2.1
		l11.6-2.1l11.6-0.7l11.6,0.7l11.6-2.1h11.6l11.6-2.8l11.6-0.7h11.6l11.6,1.4l11.6-2.1l11.6,0.7l11.6-0.7h11.6H513l11.6-0.7
		l11.6-0.7h11.6l11.6,2.1L571,356l11.6,2.8l11.6-3.5l11.6-2.1l11.6,2.1l11.6,2.1 M49,223l11.6,56.7l11.6,22.4l11.6,21l11.6,2.8
		l11.6,3.5l11.6,4.9l11.6,1.4l11.6,4.2l11.6,1.4l11.6,2.1l11.6-2.8l11.6,4.2l11.6,4.2l11.6,0.7l11.6,3.5l11.6,0.7h11.6l11.6-3.5
		l11.6-2.1l11.6,3.5l11.6,2.1l11.6-0.7l11.6-2.1l11.6,1.4L339,356l11.6,3.5l11.6-3.5h11.6l11.6-0.7L397,356l11.6-0.7h11.6l11.6,0.7
		l11.6-2.1H455l11.6-0.7l11.6-2.8l11.6,2.8l11.6,1.4l11.6,0.7l11.6-3.5l11.6,2.1l11.6,0.7l11.6-0.7l11.6,3.5h11.6l11.6,2.1l11.6,0.7
		l11.6-4.2l11.6-2.8 M49,219.5l11.6,69.3l11.6,25.9l11.6,4.2l11.6,9.8l11.6,7l11.6,0.7l11.6,4.2l11.6,7l11.6-2.8H165l11.6,0.7
		l11.6,6.3l11.6-5.6l11.6,2.8l11.6,3.5h11.6l11.6-0.7l11.6-0.7l11.6-0.7H281l11.6-0.7l11.6,1.4l11.6-1.4l11.6,2.8l11.6,0.7l11.6-1.4
		l11.6,2.1l11.6,0.7l11.6,2.1H397l11.6-2.1l11.6,1.4l11.6,3.5l11.6-2.1H455h11.6l11.6,2.8l11.6,0.7l11.6,4.2l11.6-1.4l11.6-0.7
		l11.6,3.5l11.6,2.1l11.6-0.7L571,370l11.6,1.4l11.6-1.4l11.6-3.5l11.6-1.4l11.6,2.1 M49,216l11.6,52.5l11.6,27.3l11.6,8.4l11.6,2.8
		l11.6,11.9l11.6,2.1l11.6,9.1l11.6,5.6l11.6-1.4l11.6-0.7l11.6-0.7l11.6-4.9l11.6,4.9l11.6,4.2H223l11.6,0.7l11.6,3.5l11.6-0.7
		l11.6,3.5l11.6,1.4l11.6,4.9l11.6,1.4l11.6-0.7l11.6,0.7l11.6,2.8l11.6-2.1l11.6,0.7l11.6,6.3h11.6l11.6,0.7l11.6,0.7l11.6-1.4
		l11.6-0.7l11.6,4.2l11.6-4.2l11.6,2.8l11.6-3.5h11.6l11.6,1.4l11.6-0.7l11.6,1.4l11.6-2.8l11.6-0.7l11.6-1.4l11.6-3.5l11.6-4.2
		l11.6,1.4l11.6-1.4l11.6-3.5l11.6-2.8 M49,212.5L60.6,265l11.6,16.8l11.6,8.4l11.6,10.5H107l11.6,3.5l11.6,0.7l11.6,4.9l11.6-2.8
		l11.6,2.1l11.6,0.7l11.6,2.1l11.6-1.4l11.6,4.2l11.6,1.4l11.6,4.2l11.6,2.1l11.6,2.1l11.6,3.5l11.6,3.5l11.6-2.8l11.6,0.7l11.6,0.7
		h11.6l11.6,3.5l11.6-2.1l11.6,2.1l11.6,2.1l11.6,2.1l11.6,0.7l11.6,1.4l11.6-0.7h11.6l11.6,0.7l11.6,1.4l11.6-0.7l11.6-1.4
		l11.6,1.4l11.6,1.4l11.6,1.4l11.6-0.7l11.6,1.4l11.6-2.1h11.6l11.6,0.7l11.6,2.1l11.6,1.4l11.6,2.1l11.6,1.4l11.6-2.1 M49,209
		l11.6,62.3L72.2,293l11.6,2.1l11.6,7l11.6,2.1l11.6,4.2l11.6,11.9l11.6,0.7l11.6,4.9l11.6,3.5h11.6l11.6-0.7l11.6,2.8l11.6-2.8H223
		l11.6-0.7h11.6l11.6-0.7l11.6-2.1L281,321l11.6-3.5l11.6-1.4h11.6h11.6l11.6-0.7l11.6,2.8h11.6l11.6,0.7l11.6,0.7H397l11.6,3.5
		l11.6,3.5l11.6-0.7l11.6,1.4l11.6-1.4l11.6-0.7l11.6,2.1l11.6,0.7l11.6,2.1l11.6,0.7l11.6,0.7l11.6,1.4h11.6h11.6l11.6,2.8
		l11.6-2.1l11.6-3.5h11.6l11.6,3.5l11.6-2.1 M49,205.5l11.6,63.7l11.6,23.1L83.8,307l11.6,4.9l11.6-2.1l11.6,3.5l11.6,4.2l11.6,5.6
		l11.6,3.5l11.6,7l11.6,3.5l11.6-1.4l11.6-7l11.6,1.4l11.6,7h11.6l11.6,2.1l11.6,2.8h11.6l11.6-1.4l11.6,0.7l11.6-1.4l11.6,0.7
		l11.6-1.4l11.6,0.7h11.6l11.6-0.7l11.6,1.4l11.6,0.7l11.6,1.4l11.6-1.4l11.6,0.7l11.6-2.1h11.6l11.6,0.7l11.6,6.3l11.6,2.1
		l11.6,1.4l11.6,0.7H513l11.6-0.7l11.6-2.8l11.6-1.4l11.6-1.4l11.6,2.8l11.6,0.7l11.6,0.7l11.6,1.4l11.6,0.7l11.6-1.4 M49,202
		l11.6,61.6l11.6,26.6l11.6,7l11.6,7.7l11.6,10.5l11.6,9.1l11.6,0.7l11.6,4.2l11.6,8.4l11.6,0.7l11.6,0.7l11.6,0.7l11.6,2.8
		l11.6-0.7l11.6,4.2l11.6-0.7l11.6,4.2l11.6,4.2l11.6,2.1l11.6,2.1l11.6-2.8l11.6,2.1h11.6l11.6,1.4l11.6-0.7l11.6,2.1l11.6,3.5
		l11.6,6.3l11.6,4.2H397l11.6-3.5l11.6,2.1l11.6-2.8l11.6-2.1l11.6-2.8l11.6-2.8l11.6-2.1l11.6,2.8h11.6l11.6-1.4l11.6-1.4l11.6-0.7
		l11.6,4.2h11.6H571l11.6,1.4l11.6,4.2h11.6l11.6,0.7l11.6-1.4 M49,198.5L60.6,265l11.6,29.4l11.6,14.7l11.6,17.5l11.6,2.8l11.6,5.6
		l11.6,3.5l11.6-3.5l11.6,1.4l11.6,4.2l11.6,1.4l11.6-3.5l11.6,0.7l11.6,6.3H223l11.6,4.2l11.6-0.7l11.6,3.5l11.6,0.7l11.6,0.7
		l11.6,1.4l11.6,1.4l11.6,2.1h11.6l11.6-2.1l11.6,0.7l11.6-2.1h11.6l11.6,4.2l11.6,1.4l11.6,1.4l11.6-1.4l11.6,0.7l11.6-2.1
		l11.6,0.7l11.6,2.1h11.6l11.6,0.7l11.6-1.4l11.6-2.1l11.6,0.7l11.6-0.7l11.6-1.4l11.6-1.4L571,356l11.6,2.8l11.6-1.4l11.6-1.4
		l11.6-0.7l11.6-0.7 M49,195l11.6,60.9l11.6,28.7l11.6,11.2l11.6,2.8l11.6,14l11.6,11.9l11.6,2.8l11.6,3.5l11.6,4.9l11.6,2.8h11.6
		l11.6,4.2l11.6,0.7l11.6,6.3H223l11.6-2.1l11.6,1.4l11.6,0.7l11.6,0.7l11.6,3.5l11.6-2.8l11.6-0.7l11.6-1.4l11.6,1.4L339,349
		l11.6,2.1l11.6,2.1l11.6-2.1l11.6-0.7H397l11.6-3.5l11.6,4.9l11.6,0.7l11.6-2.1l11.6,1.4l11.6-1.4l11.6-1.4l11.6,3.5l11.6,6.3
		l11.6-4.2l11.6-0.7l11.6-2.8l11.6,3.5l11.6,2.8l11.6,0.7l11.6,0.7l11.6-2.1l11.6,0.7l11.6,0.7l11.6-1.4 M49,191.5l11.6,82.6
		l11.6,18.2l11.6,9.8l11.6,11.2l11.6,11.2l11.6,7.7l11.6,0.7l11.6,4.2l11.6-0.7l11.6,2.1h11.6l11.6,2.8l11.6,2.8l11.6,0.7l11.6,4.9
		h11.6l11.6,2.1l11.6-3.5l11.6-4.2l11.6-1.4l11.6,2.8l11.6,0.7l11.6,2.8l11.6,2.1H339l11.6,3.5l11.6,4.2l11.6,2.1l11.6-2.1l11.6,2.8
		l11.6-3.5l11.6,0.7l11.6,3.5l11.6-0.7l11.6-1.4l11.6,2.8l11.6,2.8l11.6-2.1l11.6-1.4L513,363h11.6l11.6-1.4l11.6-2.1h11.6l11.6,2.1
		l11.6,3.5h11.6l11.6,1.4l11.6-2.8l11.6-2.8 M49,188l11.6,70l11.6,31.5l11.6,16.8l11.6,2.8l11.6,7.7l11.6,5.6l11.6,5.6l11.6,9.1
		l11.6,6.3l11.6,2.1l11.6-4.2l11.6,0.7l11.6,3.5l11.6,2.8l11.6-2.1h11.6l11.6,4.9l11.6,2.1l11.6-2.1H281l11.6-3.5l11.6-2.8l11.6-2.8
		l11.6,0.7L339,342l11.6-2.8l11.6,0.7h11.6l11.6,2.1l11.6-1.4l11.6,0.7l11.6,0.7l11.6,1.4l11.6,3.5l11.6,3.5l11.6,2.1l11.6,3.5
		l11.6-1.4l11.6-2.8l11.6-3.5h11.6l11.6,1.4l11.6,0.7l11.6-0.7l11.6,0.7l11.6,4.2l11.6-4.2l11.6-0.7l11.6,6.3l11.6,4.2 M49,184.5
		l11.6,90.3l11.6,36.4l11.6,23.1l11.6,7.7l11.6,3.5l11.6,5.6l11.6,7.7l11.6,9.1l11.6-0.7l11.6,1.4l11.6,1.4h11.6l11.6,3.5l11.6-4.2
		l11.6-0.7l11.6-0.7l11.6-4.2l11.6,2.1l11.6-0.7l11.6,1.4l11.6,1.4l11.6-0.7l11.6-0.7h11.6l11.6,4.2l11.6,3.5l11.6-0.7l11.6,0.7
		l11.6-2.1l11.6,2.8l11.6,0.7l11.6,0.7l11.6,1.4l11.6,0.7L455,377l11.6-2.1l11.6,1.4l11.6-1.4l11.6-2.8l11.6-2.8h11.6l11.6,1.4
		l11.6,2.8l11.6,0.7l11.6,2.1l11.6,0.7l11.6,4.9l11.6-7l11.6-2.8l11.6,5.6 M49,181l11.6,70l11.6,29.4l11.6,18.2l11.6,7.7L107,314
		l11.6,0.7l11.6,5.6l11.6-1.4l11.6,3.5L165,328l11.6-3.5h11.6l11.6,1.4l11.6,4.9l11.6,1.4l11.6,0.7l11.6,1.4l11.6,4.9l11.6-1.4
		L281,335l11.6,2.1l11.6,0.7l11.6,0.7l11.6,2.8H339h11.6l11.6-0.7l11.6-1.4l11.6,1.4l11.6-1.4l11.6,1.4h11.6h11.6l11.6,2.1l11.6-2.1
		l11.6-1.4l11.6-2.8l11.6-0.7l11.6-0.7l11.6,0.7l11.6,1.4l11.6-1.4l11.6,0.7l11.6-0.7l11.6-4.2l11.6,0.7l11.6-0.7l11.6-2.1l11.6,0.7
		l11.6-2.8 M49,177.5l11.6,64.4l11.6,29.4l11.6,9.8l11.6,15.4l11.6,11.2l11.6,8.4l11.6,1.4l11.6,3.5l11.6,1.4l11.6,1.4l11.6,3.5
		l11.6-1.4l11.6,1.4l11.6,6.3l11.6,2.8h11.6l11.6,8.4l11.6,0.7h11.6l11.6,2.1l11.6,3.5l11.6-0.7l11.6-1.4l11.6,1.4H339l11.6-2.8
		l11.6,1.4l11.6,4.2l11.6-2.8l11.6,2.1l11.6-2.8l11.6,0.7l11.6-2.1l11.6,3.5l11.6-2.1l11.6-0.7l11.6-1.4l11.6-1.4l11.6,3.5l11.6-2.1
		l11.6-2.1l11.6-2.1l11.6,0.7l11.6-0.7l11.6,2.8l11.6,1.4l11.6-2.8h11.6l11.6-2.1H629 M49,174l11.6,104.3l11.6,21l11.6,19.6
		l11.6,9.1l11.6,5.6l11.6,3.5l11.6,4.2l11.6,3.5l11.6,4.2l11.6,2.1l11.6,1.4l11.6-1.4l11.6,7h11.6l11.6,2.8l11.6,2.1l11.6,2.1h11.6
		l11.6-1.4l11.6-2.1l11.6,0.7l11.6-4.2l11.6-2.8l11.6,2.8l11.6,1.4l11.6,0.7l11.6,1.4l11.6,2.1l11.6,2.8H397l11.6,1.4l11.6-2.1
		l11.6-2.1l11.6,2.1l11.6,1.4h11.6l11.6,1.4l11.6-1.4l11.6-0.7l11.6,0.7l11.6,2.1l11.6-0.7l11.6-2.1l11.6-3.5l11.6,2.8h11.6
		l11.6-1.4l11.6,2.1l11.6-3.5l11.6-1.4 M49,170.5l11.6,92.4l11.6,32.9l11.6,23.8l11.6,16.1l11.6,2.1l11.6,6.3l11.6,2.1l11.6,1.4
		l11.6,4.9l11.6,5.6l11.6,4.2l11.6,1.4l11.6,2.8l11.6-1.4l11.6,0.7l11.6-0.7l11.6,0.7l11.6,3.5l11.6,2.8l11.6,2.1h11.6l11.6,0.7
		l11.6-0.7h11.6l11.6,3.5l11.6,2.1l11.6,2.1l11.6-0.7h11.6H397l11.6,2.1l11.6,0.7l11.6-3.5l11.6-2.1l11.6,0.7l11.6,0.7l11.6,0.7
		l11.6,1.4l11.6-0.7l11.6,1.4l11.6,4.9h11.6h11.6l11.6,0.7l11.6-2.8l11.6-0.7h11.6l11.6-0.7l11.6,0.7l11.6,2.1 M49,167l11.6,84.7
		l11.6,24.5l11.6,20.3l11.6,3.5l11.6,9.1l11.6,10.5l11.6,6.3l11.6-0.7l11.6,1.4H165l11.6-1.4l11.6,1.4l11.6,4.2l11.6-0.7L223,335
		l11.6,0.7h11.6l11.6,0.7l11.6,3.5l11.6,1.4l11.6,2.1l11.6,1.4l11.6-0.7h11.6l11.6-0.7h11.6l11.6-2.8l11.6,2.1l11.6,0.7l11.6,2.1
		l11.6,0.7l11.6,1.4l11.6-1.4l11.6-1.4l11.6,2.1l11.6,4.9l11.6,1.4l11.6-3.5l11.6,1.4l11.6,2.1l11.6,1.4h11.6h11.6l11.6-0.7
		l11.6-2.8l11.6-2.1l11.6,4.9l11.6,2.8l11.6,2.8l11.6-0.7 M49,163.5l11.6,81.9l11.6,25.9l11.6,13.3l11.6,11.2l11.6,7.7l11.6,2.8
		l11.6,7l11.6,2.1h11.6l11.6,4.2l11.6,0.7l11.6,2.8l11.6-1.4l11.6,2.1H223l11.6,2.1l11.6,1.4l11.6,4.9l11.6,0.7L281,335l11.6,2.1
		l11.6-2.1l11.6,2.8l11.6,2.8L339,342l11.6,0.7l11.6-2.1h11.6l11.6-2.1l11.6-1.4l11.6-2.8l11.6-2.1l11.6,0.7l11.6,0.7l11.6,0.7
		l11.6,0.7l11.6,1.4l11.6-1.4h11.6l11.6-3.5l11.6,1.4l11.6,0.7l11.6-0.7l11.6-2.1l11.6-0.7l11.6-1.4l11.6,2.1l11.6-1.4l11.6-1.4
		l11.6,2.1 M49,160l11.6,78.4l11.6,32.9L83.8,286l11.6,10.5l11.6,5.6l11.6,4.2l11.6,6.3l11.6,4.2l11.6,9.8l11.6,2.8l11.6-3.5
		l11.6,4.9l11.6,4.9l11.6,1.4l11.6,0.7h11.6l11.6-1.4l11.6,1.4l11.6,5.6H281l11.6-1.4l11.6,4.2l11.6,1.4l11.6,3.5l11.6,7l11.6,3.5
		l11.6,2.8l11.6,2.1l11.6,4.2l11.6-1.4l11.6,1.4l11.6-3.5l11.6-1.4l11.6,3.5l11.6-1.4l11.6,0.7l11.6-0.7l11.6-0.7l11.6-1.4l11.6-1.4
		h11.6l11.6,4.2l11.6-0.7l11.6,2.1H571l11.6-3.5l11.6-1.4l11.6,0.7l11.6,0.7l11.6-2.1 M49,156.5L60.6,244l11.6,44.8l11.6,26.6
		l11.6,10.5l11.6,0.7l11.6,4.2l11.6,4.2l11.6,14h11.6l11.6,4.9l11.6,5.6l11.6,3.5h11.6l11.6,0.7l11.6,4.2l11.6,4.2l11.6,2.8
		l11.6-3.5h11.6l11.6-2.8l11.6-2.1l11.6-2.1l11.6-0.7l11.6-0.7H339l11.6,4.2l11.6,1.4l11.6-2.1l11.6-0.7l11.6-0.7h11.6l11.6,1.4
		l11.6,4.9l11.6-1.4l11.6-1.4l11.6,0.7h11.6l11.6,1.4l11.6-2.1l11.6,0.7l11.6-0.7l11.6-4.2l11.6,4.2l11.6,1.4l11.6-2.8l11.6,4.2
		l11.6-5.6l11.6-0.7l11.6-2.1l11.6-5.6 M49,153l11.6,74.9l11.6,45.5l11.6,25.9l11.6,16.1l11.6,14.7l11.6,6.3l11.6,2.8l11.6,4.9
		l11.6-2.1l11.6,2.8l11.6,2.1l11.6-0.7l11.6,1.4l11.6,7l11.6,0.7l11.6,2.1l11.6-0.7l11.6-0.7l11.6,0.7H281l11.6-1.4h11.6l11.6-1.4
		l11.6,1.4l11.6-2.1l11.6,0.7l11.6,1.4h11.6l11.6-2.1L397,349h11.6l11.6,1.4h11.6h11.6l11.6,2.1h11.6h11.6l11.6,0.7l11.6,4.9
		l11.6-0.7h11.6l11.6-3.5l11.6-1.4l11.6,1.4L571,356l11.6-1.4l11.6,0.7l11.6-0.7l11.6,2.8l11.6-0.7 M49,149.5l11.6,88.9l11.6,25.2
		l11.6,24.5l11.6,28l11.6,6.3l11.6,4.9l11.6,12.6l11.6-1.4l11.6,5.6l11.6,2.8l11.6,4.2h11.6l11.6,5.6l11.6,4.9l11.6,2.1l11.6-2.1
		l11.6,6.3l11.6-3.5l11.6-4.2l11.6-0.7l11.6-2.8l11.6,1.4l11.6-2.1l11.6,2.1l11.6-4.2l11.6,4.9l11.6,1.4l11.6-3.5l11.6,6.3l11.6-2.1
		l11.6,1.4h11.6h11.6l11.6,2.8l11.6,4.2l11.6,0.7h11.6l11.6,1.4l11.6,0.7l11.6-3.5h11.6l11.6,4.2l11.6,3.5l11.6-4.9l11.6,0.7
		l11.6,2.1l11.6,2.1l11.6-2.1l11.6-2.1l11.6-1.4 M49,146l11.6,101.5l11.6,48.3l11.6,12.6l11.6,16.8L107,335l11.6,5.6l11.6,1.4
		l11.6,2.8l11.6,2.1H165l11.6,5.6l11.6,2.1l11.6,2.8l11.6,2.1l11.6,4.9h11.6l11.6-1.4h11.6l11.6,2.1l11.6-0.7h11.6l11.6-0.7h11.6
		h11.6H339h11.6h11.6h11.6h11.6H397h11.6h11.6h11.6h11.6H455h11.6h11.6h11.6h11.6H513h11.6h11.6h11.6h11.6H571h11.6h11.6h11.6h11.6
		H629 M49,142.5l11.6,68.6l11.6,37.1l11.6,28.7l11.6,11.9l11.6,16.1l11.6,2.8l11.6,12.6l11.6,0.7l11.6,2.8l11.6,1.4l11.6,0.7
		l11.6,2.8l11.6,1.4l11.6-0.7l11.6,3.5l11.6,4.9l11.6-0.7l11.6,1.4l11.6,0.7l11.6,2.1l11.6,2.8l11.6-0.7l11.6,0.7l11.6,2.1H339
		l11.6-2.8l11.6,1.4l11.6-3.5l11.6-4.2H397h11.6l11.6,5.6l11.6,3.5l11.6,2.1L455,349l11.6,0.7l11.6,2.8l11.6-2.8h11.6l11.6-1.4
		l11.6,2.1h11.6l11.6-2.1l11.6,0.7l11.6-2.1l11.6,2.8l11.6-0.7l11.6-0.7l11.6,2.8H629 M49,139l11.6,100.1l11.6,37.8l11.6,20.3
		l11.6,7l11.6,4.9l11.6,10.5l11.6,9.8l11.6,1.4l11.6,2.1l11.6,5.6l11.6,2.1l11.6,2.1l11.6,3.5l11.6,7l11.6,2.1l11.6-1.4l11.6-1.4
		l11.6,2.8l11.6-4.2l11.6,2.8l11.6-4.2l11.6,3.5l11.6,1.4l11.6-2.1l11.6,0.7l11.6-1.4l11.6-2.8h11.6l11.6-1.4l11.6-0.7l11.6,1.4
		l11.6,0.7l11.6,1.4l11.6-1.4l11.6,4.2h11.6h11.6h11.6l11.6,3.5l11.6-2.1l11.6-0.7l11.6-0.7l11.6,1.4l11.6-1.4l11.6-2.1l11.6-0.7
		l11.6,4.2l11.6-1.4l11.6-1.4l11.6,2.1 M49,135.5l11.6,93.8l11.6,28l11.6,25.9l11.6,11.9l11.6,14l11.6,15.4l11.6,2.8l11.6,9.1
		l11.6,1.4H165l11.6,3.5l11.6-0.7l11.6-0.7h11.6l11.6,1.4l11.6-0.7h11.6l11.6-1.4l11.6-3.5L281,335l11.6-2.1l11.6-0.7l11.6,0.7
		l11.6,1.4l11.6,2.1l11.6,4.2l11.6,1.4l11.6-2.1l11.6-1.4L397,342l11.6,2.1l11.6,4.9l11.6,1.4l11.6,1.4l11.6,2.1l11.6-4.9l11.6,2.8
		l11.6-0.7l11.6-2.1l11.6,2.1l11.6-1.4l11.6,2.1l11.6,2.1l11.6-4.2L571,349l11.6-4.2h11.6l11.6,2.1l11.6,0.7L629,349 M49,132
		l11.6,85.4l11.6,35l11.6,16.8l11.6,10.5l11.6,12.6l11.6,4.9l11.6-2.1l11.6,8.4l11.6,5.6l11.6,8.4l11.6,1.4l11.6-0.7l11.6-4.9
		l11.6,4.2L223,321l11.6,8.4l11.6,4.2l11.6-1.4l11.6,7l11.6,0.7l11.6,6.3l11.6,4.2l11.6,2.1l11.6,2.1l11.6-0.7l11.6,4.2l11.6,2.1
		l11.6,2.8l11.6-1.4l11.6-0.7l11.6-5.6l11.6-4.2l11.6,1.4l11.6,1.4l11.6-2.1h11.6h11.6l11.6-3.5l11.6,1.4l11.6,1.4l11.6-2.1
		l11.6-3.5l11.6,1.4l11.6,0.7l11.6-2.1l11.6-1.4l11.6,2.1l11.6-1.4l11.6,2.1l11.6,1.4 M49,128.5L60.6,216l11.6,51.8l11.6,24.5
		l11.6,15.4l11.6,12.6l11.6,15.4l11.6,7h11.6h11.6l11.6,3.5l11.6-1.4l11.6-5.6l11.6,0.7l11.6-2.8l11.6,1.4l11.6-1.4l11.6,2.1
		l11.6,3.5l11.6,2.8l11.6-2.1l11.6,1.4l11.6-3.5l11.6-1.4l11.6,1.4l11.6-1.4l11.6,3.5l11.6-1.4l11.6,0.7l11.6,2.1L397,342l11.6,3.5
		l11.6,3.5l11.6,0.7l11.6-0.7l11.6,2.8l11.6,2.1l11.6-7.7l11.6,2.8l11.6,2.1l11.6-0.7l11.6-0.7l11.6,1.4h11.6l11.6,0.7l11.6-3.5
		l11.6,2.8l11.6-0.7l11.6,0.7l11.6,0.7l11.6-1.4 M49,125l11.6,102.2l11.6,36.4l11.6,28l11.6,14.7l11.6,11.9l11.6,11.2l11.6,4.2
		l11.6,6.3h11.6L165,349l11.6,3.5l11.6,7.7l11.6,6.3l11.6,3.5l11.6-1.4l11.6,0.7l11.6,2.8l11.6-2.1h11.6l11.6,2.1l11.6-0.7l11.6-1.4
		l11.6-2.1h11.6L339,370l11.6,0.7l11.6,2.8h11.6l11.6,2.1l11.6-7l11.6-5.6l11.6,2.1l11.6,0.7l11.6,1.4l11.6,1.4l11.6,4.9h11.6
		l11.6-3.5l11.6-1.4H513l11.6,2.8l11.6,2.1l11.6-4.2l11.6-2.8l11.6,1.4l11.6,0.7l11.6,4.2l11.6-2.8l11.6-1.4l11.6,0.7 M49,121.5
		L60.6,230l11.6,46.2l11.6,21.7l11.6,11.9l11.6,11.9l11.6,12.6l11.6,5.6l11.6,5.6l11.6,0.7l11.6-3.5l11.6,0.7l11.6,1.4l11.6,2.8
		l11.6-2.1l11.6,1.4l11.6,2.8l11.6,4.2l11.6,4.2l11.6-0.7L281,356l11.6,0.7l11.6-4.9h11.6l11.6,2.8l11.6,0.7l11.6,0.7l11.6-2.1h11.6
		l11.6,4.2l11.6-1.4l11.6,2.8l11.6-4.2l11.6,2.1h11.6l11.6,2.1l11.6,3.5l11.6,0.7l11.6,4.9l11.6,1.4l11.6-4.9l11.6,2.8l11.6,3.5
		l11.6,1.4h11.6l11.6,2.8l11.6-6.3l11.6-1.4l11.6-4.9l11.6,0.7L629,363 M49,118l11.6,83.3l11.6,51.1l11.6,29.4l11.6,7l11.6,14
		l11.6,9.1l11.6,5.6l11.6,2.1h11.6l11.6-2.1l11.6,0.7h11.6l11.6,3.5l11.6,0.7l11.6,1.4l11.6,1.4h11.6l11.6,2.8h11.6l11.6-1.4
		l11.6,1.4h11.6l11.6,2.1l11.6,3.5L339,335l11.6-0.7l11.6,2.8l11.6-4.2l11.6,2.1l11.6-3.5h11.6h11.6l11.6-0.7l11.6,2.1l11.6-2.1
		l11.6,7l11.6,2.1l11.6-2.8l11.6,5.6l11.6,0.7h11.6l11.6,4.2l11.6,2.1l11.6,1.4H571l11.6,2.1l11.6,4.2l11.6-1.4h11.6l11.6-4.2
		 M49,114.5l11.6,113.4l11.6,56.7l11.6,24.5l11.6,5.6l11.6,10.5l11.6,5.6l11.6,9.8l11.6,8.4l11.6,4.9L165,363l11.6,0.7l11.6-3.5
		h11.6l11.6-0.7L223,356l11.6,3.5l11.6,0.7l11.6-1.4l11.6-2.1H281h11.6h11.6l11.6-1.4l11.6,1.4l11.6-2.1l11.6,6.3l11.6,5.6l11.6-2.1
		l11.6,2.1l11.6,2.1l11.6-1.4l11.6,2.8l11.6,0.7l11.6,4.2l11.6,1.4l11.6-2.1l11.6,2.1l11.6,2.8l11.6,0.7L513,377l11.6-3.5l11.6,3.5
		l11.6,2.1l11.6,1.4L571,377l11.6-2.1l11.6-0.7l11.6,1.4l11.6-2.8l11.6-0.7 M49,111l11.6,86.8l11.6,44.1l11.6,24.5l11.6,14L107,286
		l11.6,7.7l11.6,6.3l11.6,7.7l11.6,7.7l11.6,2.8l11.6-0.7l11.6-2.1l11.6,5.6l11.6-0.7l11.6-1.4l11.6-0.7l11.6,1.4l11.6,4.9l11.6,0.7
		L281,328l11.6,0.7l11.6-4.2l11.6-1.4l11.6,3.5l11.6,0.7l11.6,0.7l11.6-2.1l11.6,1.4l11.6,2.8l11.6,2.1h11.6l11.6,5.6l11.6-0.7
		l11.6-1.4L455,335l11.6-4.9l11.6-4.9l11.6,2.1l11.6-0.7H513l11.6-1.4l11.6-0.7l11.6-1.4l11.6,5.6l11.6,1.4l11.6,2.8l11.6,0.7
		l11.6,3.5l11.6,0.7l11.6-1.4 M49,107.5l11.6,109.2l11.6,49.7l11.6,27.3l11.6,19.6l11.6,8.4l11.6,7.7l11.6,4.9l11.6,2.1l11.6,5.6
		l11.6,6.3h11.6h11.6l11.6,2.1l11.6,7l11.6-2.1l11.6,2.8l11.6,0.7l11.6-0.7l11.6-2.1l11.6,3.5l11.6,1.4l11.6,3.5l11.6-4.2l11.6-1.4
		l11.6-0.7l11.6-1.4h11.6l11.6,2.8l11.6-1.4l11.6-0.7h11.6l11.6-3.5l11.6-3.5l11.6,4.9l11.6,2.1l11.6,1.4l11.6,2.1l11.6,3.5
		l11.6,0.7l11.6,0.7l11.6,1.4l11.6,2.1l11.6-4.2l11.6-1.4l11.6-4.9h11.6l11.6-0.7l11.6-3.5l11.6,0.7H629 M49,104l11.6,95.9L72.2,251
		l11.6,35.7l11.6,16.8l11.6,7l11.6,7l11.6,4.9l11.6,5.6l11.6,12.6L165,349l11.6,3.5l11.6-2.1l11.6,2.1l11.6,2.1l11.6,0.7l11.6,1.4
		h11.6h11.6l11.6-0.7l11.6,2.8h11.6l11.6-0.7l11.6,2.1h11.6L339,356l11.6-5.6l11.6,5.6l11.6-1.4l11.6,7.7l11.6,1.4l11.6-1.4
		l11.6,3.5l11.6,2.8l11.6-0.7l11.6-2.8h11.6l11.6-2.1l11.6,2.8l11.6-1.4l11.6-0.7l11.6-0.7l11.6-2.8l11.6-2.8l11.6-2.8H571l11.6,3.5
		l11.6-4.2l11.6-8.4l11.6,1.4l11.6-1.4 M49,100.5l11.6,98.7l11.6,46.2l11.6,17.5l11.6,13.3L107,293l11.6,11.2l11.6-2.1l11.6,2.1
		l11.6,9.1l11.6,6.3l11.6,2.1l11.6,2.1l11.6,7l11.6,0.7l11.6,0.7l11.6-4.2l11.6-0.7l11.6,0.7l11.6,3.5l11.6-1.4l11.6-2.1l11.6,2.8
		l11.6-0.7h11.6H339l11.6-0.7l11.6,2.8l11.6,1.4l11.6,0.7l11.6-0.7l11.6-2.8l11.6,2.8l11.6,2.8l11.6,0.7l11.6-0.7l11.6,2.8l11.6-1.4
		l11.6-2.1l11.6,0.7l11.6,1.4l11.6,1.4l11.6-4.9l11.6,4.2h11.6l11.6,0.7h11.6l11.6-0.7h11.6h11.6l11.6-0.7 M49,97l11.6,134.4
		l11.6,44.1l11.6,23.8l11.6,19.6l11.6,6.3l11.6,8.4l11.6,13.3l11.6,7l11.6,2.1l11.6,2.1l11.6-2.8h11.6l11.6,4.9l11.6,4.2l11.6,6.3
		l11.6,2.8l11.6,1.4l11.6,0.7l11.6,0.7l11.6,2.8l11.6-1.4l11.6,0.7l11.6,0.7l11.6-1.4H339l11.6-3.5l11.6-2.1l11.6-2.1l11.6-1.4
		l11.6-1.4l11.6-2.8l11.6,1.4h11.6l11.6,4.9l11.6-2.8l11.6,2.1l11.6,9.1l11.6,0.7l11.6-0.7l11.6,0.7l11.6-4.2l11.6,4.2h11.6
		l11.6-2.1l11.6,1.4l11.6,3.5l11.6,1.4l11.6-0.7l11.6-0.7l11.6,2.1 M49,93.5l11.6,109.9l11.6,43.4l11.6,28l11.6,19.6l11.6,20.3
		l11.6,7l11.6,8.4l11.6,4.9l11.6,9.8l11.6,2.1l11.6,4.2l11.6,1.4l11.6,1.4l11.6-2.8l11.6,4.2l11.6,1.4l11.6,1.4l11.6-1.4l11.6,0.7
		l11.6,2.8l11.6-4.2l11.6,4.9l11.6-0.7l11.6-0.7l11.6,0.7l11.6,2.8l11.6-0.7l11.6-2.8l11.6,1.4l11.6-1.4l11.6-2.8l11.6-1.4l11.6,0.7
		l11.6,0.7l11.6,2.1l11.6,0.7h11.6l11.6,1.4l11.6-1.4l11.6-0.7l11.6,0.7l11.6,1.4l11.6-2.1l11.6,2.1l11.6-1.4l11.6,2.8l11.6,1.4
		h11.6l11.6-2.1l11.6-2.1 M49,90l11.6,119l11.6,53.2l11.6,23.1l11.6,18.2l11.6,5.6l11.6,7.7l11.6,7l11.6,9.8l11.6,7l11.6,7l11.6,2.8
		l11.6,4.2l11.6-2.1l11.6,2.8l11.6,3.5l11.6,0.7l11.6,3.5l11.6,0.7l11.6-2.1H281l11.6-2.1l11.6,4.2l11.6-4.2l11.6,0.7l11.6-1.4
		l11.6,0.7l11.6,4.9l11.6-0.7l11.6-3.5l11.6-1.4h11.6l11.6,3.5h11.6l11.6,3.5l11.6-0.7l11.6,2.1l11.6,1.4h11.6l11.6,1.4l11.6,1.4
		l11.6-3.5l11.6-0.7l11.6,1.4h11.6L571,370l11.6,2.1l11.6-0.7l11.6-2.8l11.6-0.7l11.6,1.4 M49,86.5l11.6,116.9l11.6,49.7l11.6,35.7
		l11.6,19.6L107,314l11.6,8.4l11.6,8.4l11.6,4.9l11.6,6.3l11.6-2.1l11.6-0.7l11.6,5.6l11.6,3.5l11.6,4.9l11.6-1.4l11.6,1.4l11.6,4.2
		l11.6,1.4l11.6,0.7l11.6-1.4l11.6,0.7l11.6,2.8l11.6,1.4h11.6H339h11.6l11.6,1.4l11.6-2.1l11.6-1.4l11.6,0.7l11.6,4.2l11.6-0.7
		l11.6-0.7l11.6,3.5H455h11.6l11.6,0.7h11.6l11.6,2.1l11.6,2.8l11.6,2.1l11.6,0.7l11.6-4.9l11.6,0.7l11.6,3.5l11.6,0.7h11.6
		l11.6-1.4l11.6,1.4l11.6,1.4 M49,83l11.6,96.6l11.6,56.7L83.8,265l11.6,18.9L107,293l11.6,12.6l11.6,5.6l11.6,8.4l11.6,4.9
		l11.6-0.7l11.6,3.5l11.6,7.7l11.6,1.4l11.6,4.9l11.6-0.7l11.6,4.2l11.6,1.4l11.6,3.5l11.6,2.8l11.6,0.7l11.6-3.5l11.6-0.7h11.6
		l11.6,0.7l11.6,2.1h11.6l11.6,1.4l11.6-2.8l11.6-0.7H397l11.6,0.7l11.6,2.8l11.6-2.8l11.6-0.7l11.6-3.5l11.6-0.7l11.6-1.4l11.6-2.1
		l11.6,2.1l11.6,1.4l11.6-2.1h11.6l11.6,3.5l11.6,0.7l11.6,3.5l11.6-2.8l11.6-3.5l11.6,4.2l11.6-0.7H629 M49,79.5l11.6,113.4
		l11.6,53.2l11.6,27.3l11.6,4.2l11.6,2.1l11.6,8.4l11.6,11.2l11.6,4.2l11.6,4.9l11.6,0.7l11.6,8.4l11.6,3.5l11.6,4.9l11.6,3.5
		l11.6,0.7h11.6l11.6-2.1l11.6,1.4l11.6,1.4H281h11.6l11.6-0.7l11.6-1.4l11.6-1.4l11.6,2.1h11.6l11.6-1.4h11.6l11.6,2.1l11.6-3.5
		h11.6l11.6,2.1l11.6-2.8l11.6-2.1l11.6-1.4h11.6l11.6,5.6l11.6-5.6l11.6,3.5L513,328l11.6-3.5l11.6-0.7l11.6,1.4l11.6-2.8l11.6-3.5
		l11.6-2.8l11.6,2.8l11.6,4.9l11.6,2.1H629 M49,76l11.6,114.1l11.6,46.2l11.6,27.3l11.6,19.6l11.6,14l11.6,7.7l11.6,7.7h11.6h11.6
		l11.6-2.1l11.6-0.7l11.6,6.3l11.6,2.1l11.6,0.7l11.6,2.8l11.6,2.1l11.6,1.4l11.6,2.1h11.6l11.6,4.2l11.6,4.9l11.6-0.7l11.6-1.4
		l11.6,2.8l11.6-1.4l11.6-0.7l11.6,2.1l11.6,0.7h11.6l11.6-1.4l11.6-0.7l11.6,2.1l11.6-0.7l11.6,0.7l11.6,3.5h11.6l11.6,1.4
		l11.6-0.7l11.6-2.1l11.6,3.5h11.6l11.6-1.4l11.6-1.4l11.6,2.1l11.6,0.7l11.6,3.5l11.6-2.8h11.6h11.6H629 M49,72.5l11.6,117.6
		l11.6,56l11.6,23.1l11.6,18.2l11.6,11.9l11.6,3.5l11.6,11.2l11.6-1.4l11.6-0.7l11.6,8.4l11.6,9.8l11.6,2.8l11.6-3.5l11.6,6.3H223
		l11.6-0.7l11.6,3.5l11.6,7.7l11.6,2.1L281,349l11.6-0.7l11.6,2.8h11.6l11.6-1.4l11.6-1.4l11.6,3.5l11.6,1.4l11.6,1.4l11.6-0.7
		l11.6,4.2l11.6-2.1l11.6,1.4l11.6-2.1h11.6l11.6,1.4l11.6-2.1l11.6-0.7l11.6-0.7l11.6,0.7l11.6,1.4l11.6,5.6l11.6-1.4l11.6-2.8
		l11.6-2.8L571,356l11.6,2.8l11.6,2.1l11.6,4.2l11.6-6.3l11.6,2.1 M49,69l11.6,138.6l11.6,42.7l11.6,30.1l11.6,18.9l11.6,13.3
		l11.6,6.3l11.6-1.4l11.6,7l11.6,1.4H165l11.6,2.1l11.6,1.4l11.6-0.7l11.6-3.5l11.6,3.5l11.6-1.4h11.6h11.6l11.6,1.4l11.6-2.8
		l11.6,0.7l11.6-2.8l11.6,2.8l11.6,4.2l11.6-2.1l11.6,0.7l11.6,2.1l11.6,5.6l11.6,1.4l11.6,0.7l11.6,2.1l11.6,0.7l11.6,0.7l11.6,2.1
		H455l11.6-1.4l11.6,3.5l11.6-1.4l11.6-2.1l11.6,0.7l11.6,4.9l11.6,2.1h11.6l11.6-0.7l11.6,3.5l11.6,4.2l11.6-0.7l11.6,2.8l11.6,0.7
		l11.6-3.5 M49,65.5l11.6,119l11.6,64.4l11.6,14l11.6,14l11.6,10.5l11.6,9.1l11.6,4.9l11.6,5.6l11.6,1.4l11.6,2.8l11.6,3.5
		l11.6,10.5l11.6,5.6l11.6,8.4l11.6,2.1l11.6,2.8l11.6,1.4h11.6l11.6-0.7l11.6,2.8l11.6,2.1l11.6-1.4l11.6-1.4l11.6-1.4H339
		l11.6-0.7l11.6,1.4l11.6,0.7h11.6l11.6,1.4l11.6-2.8l11.6,2.1l11.6,0.7l11.6-2.1H455l11.6,0.7l11.6,1.4l11.6-0.7l11.6,2.1H513
		l11.6,0.7l11.6,1.4l11.6,0.7l11.6,1.4l11.6-1.4l11.6-2.8l11.6,0.7l11.6-0.7l11.6,2.1l11.6-1.4 M49,62l11.6,133.7l11.6,65.1
		L83.8,293l11.6,12.6l11.6,11.2l11.6,2.8l11.6,2.8l11.6,12.6l11.6,4.9l11.6,7.7l11.6-0.7l11.6,1.4l11.6,2.8l11.6-0.7l11.6,2.1h11.6
		l11.6,5.6l11.6,2.1l11.6,2.1l11.6,2.1l11.6-3.5l11.6-3.5l11.6-1.4l11.6-0.7l11.6-2.1l11.6,1.4l11.6,0.7l11.6,2.1l11.6,3.5l11.6,1.4
		l11.6,2.1h11.6h11.6l11.6-1.4l11.6-0.7l11.6-3.5l11.6,1.4l11.6-1.4l11.6,0.7l11.6-0.7l11.6-0.7l11.6,0.7l11.6,2.1l11.6,0.7
		l11.6-1.4h11.6l11.6,0.7l11.6-1.4l11.6,0.7l11.6,1.4 M49,58.5l11.6,134.4l11.6,49.7l11.6,21.7l11.6,15.4L107,286l11.6,12.6
		l11.6,8.4l11.6,3.5l11.6,2.8l11.6,2.8l11.6,4.9l11.6-0.7l11.6-1.4l11.6,5.6l11.6-2.8h11.6l11.6-2.1h11.6l11.6,1.4l11.6,7l11.6,2.1
		l11.6,2.1h11.6l11.6,4.2l11.6,0.7l11.6-3.5l11.6-2.8h11.6h11.6l11.6,2.1l11.6-0.7l11.6,1.4h11.6l11.6-0.7L455,335l11.6-2.8
		l11.6,0.7l11.6-1.4l11.6,2.8H513l11.6,1.4l11.6,1.4l11.6,2.1l11.6-2.1l11.6-0.7l11.6-1.4l11.6-2.8l11.6,2.1l11.6-2.8l11.6,2.8
		 M49,55l11.6,133l11.6,53.9l11.6,41.3L95.4,300l11.6,10.5l11.6,3.5l11.6,10.5l11.6,7l11.6,1.4l11.6-2.8l11.6-0.7l11.6,1.4l11.6,2.8
		h11.6l11.6,2.1l11.6,3.5h11.6l11.6,1.4l11.6,4.9l11.6,1.4l11.6,0.7l11.6-2.8h11.6l11.6-0.7l11.6,4.2l11.6,1.4l11.6-2.8l11.6,0.7
		l11.6,0.7l11.6-1.4l11.6,0.7l11.6,1.4l11.6,2.1l11.6-3.5l11.6-2.8l11.6,4.2l11.6,0.7h11.6l11.6-0.7l11.6,0.7l11.6,1.4l11.6,0.7
		l11.6,3.5l11.6-0.7l11.6-0.7l11.6-0.7l11.6-1.4l11.6,2.1l11.6,2.1l11.6-1.4 M49,51.5l11.6,131.6l11.6,59.5l11.6,28l11.6,10.5
		l11.6,15.4l11.6,7.7l11.6,11.9l11.6,6.3l11.6,4.9l11.6,2.1l11.6,0.7l11.6,1.4l11.6,2.8l11.6-1.4L223,335l11.6,4.9l11.6,2.1h11.6
		l11.6,4.2l11.6-2.8l11.6,2.1l11.6,2.1l11.6,2.8l11.6-1.4l11.6,2.8l11.6-1.4h11.6l11.6-3.5l11.6-1.4H397l11.6,2.1l11.6,0.7l11.6,2.1
		l11.6-3.5L455,349l11.6,1.4l11.6-2.8l11.6-3.5l11.6,0.7l11.6,1.4l11.6-1.4l11.6,2.1h11.6l11.6,2.1l11.6,2.8l11.6,2.8l11.6,0.7
		l11.6,2.8l11.6-3.5H629 M49,48l11.6,144.9L72.2,237l11.6,22.4l11.6,21.7l11.6,11.2l11.6,12.6l11.6,0.7l11.6,5.6l11.6,4.9l11.6,10.5
		l11.6,7l11.6,6.3l11.6,4.2h11.6l11.6,2.1h11.6l11.6,4.9l11.6-0.7l11.6,3.5l11.6,2.8l11.6,2.1h11.6l11.6,2.1l11.6-2.1l11.6-2.1
		l11.6,4.2l11.6,2.8l11.6-0.7l11.6,1.4l11.6-0.7l11.6-0.7l11.6,0.7l11.6,0.7l11.6-1.4H455l11.6,2.1l11.6-0.7l11.6-2.1h11.6l11.6-3.5
		l11.6-0.7l11.6-2.1l11.6,3.5l11.6,0.7l11.6,1.4h11.6l11.6-2.8l11.6,0.7l11.6-1.4l11.6-0.7 M49,44.5l11.6,156.1l11.6,60.2l11.6,42
		l11.6,14l11.6,11.9l11.6,2.1l11.6,3.5l11.6,2.8l11.6,7l11.6,4.2l11.6,2.8l11.6-1.4l11.6-0.7l11.6-5.6l11.6,2.8l11.6,1.4l11.6-0.7
		l11.6,2.8h11.6l11.6,2.8l11.6,2.1l11.6,0.7h11.6h11.6l11.6-0.7l11.6-0.7l11.6,0.7l11.6,0.7l11.6-2.1H397l11.6,0.7l11.6,2.8
		l11.6,1.4l11.6-0.7l11.6,0.7l11.6-1.4h11.6l11.6-1.4h11.6H513l11.6-0.7l11.6,4.2h11.6l11.6-0.7l11.6,0.7l11.6,3.5l11.6-2.1
		l11.6,0.7l11.6-2.1H629 M49,41l11.6,129.5l11.6,63l11.6,30.8l11.6,25.2l11.6,11.9l11.6,9.1l11.6,3.5l11.6,2.8l11.6,1.4L165,321
		l11.6,4.2l11.6-2.1l11.6,4.9l11.6,4.9l11.6,1.4l11.6,1.4l11.6-0.7l11.6-1.4l11.6,0.7l11.6,2.1h11.6l11.6,2.1h11.6l11.6-0.7l11.6,7
		l11.6,4.2l11.6-2.1l11.6,0.7l11.6,0.7l11.6,3.5l11.6,0.7l11.6-0.7l11.6,2.8l11.6,0.7l11.6-0.7l11.6,1.4l11.6,1.4l11.6-4.2h11.6
		l11.6,1.4l11.6,1.4h11.6l11.6,1.4l11.6-1.4l11.6-2.8l11.6-2.8l11.6,2.8l11.6-3.5l11.6,3.5l11.6-2.8 M49,37.5l11.6,147L72.2,230
		l11.6,37.8l11.6,30.8l11.6,10.5l11.6,10.5l11.6,2.8l11.6,2.8l11.6,2.8l11.6-0.7l11.6-0.7l11.6,2.8l11.6-1.4l11.6,4.2l11.6,1.4
		l11.6,1.4h11.6l11.6,3.5l11.6,0.7l11.6,0.7l11.6-0.7l11.6,0.7l11.6-2.1l11.6,3.5l11.6,4.9l11.6,0.7l11.6,1.4l11.6,0.7l11.6-3.5H397
		l11.6,1.4l11.6,0.7l11.6,1.4l11.6,2.1l11.6,0.7l11.6-0.7l11.6-0.7l11.6-1.4h11.6l11.6,2.1l11.6,2.1l11.6,2.8l11.6,2.1l11.6-2.8
		L571,356l11.6,1.4l11.6-2.8l11.6,2.8l11.6-0.7l11.6-3.5 M49,34l11.6,133l11.6,60.9l11.6,21.7l11.6,11.9l11.6,23.8l11.6,14.7
		l11.6,10.5l11.6,5.6l11.6,3.5l11.6,2.1l11.6,7l11.6,1.4h11.6l11.6-2.1l11.6,2.8l11.6-0.7l11.6,1.4l11.6,3.5l11.6,4.9l11.6,3.5
		l11.6-1.4l11.6-0.7h11.6l11.6-6.3l11.6-1.4l11.6,0.7l11.6-0.7l11.6,2.1l11.6-2.1H397l11.6-0.7l11.6,2.8l11.6-2.1l11.6,0.7L455,335
		l11.6-4.9l11.6-1.4l11.6-2.1l11.6,3.5l11.6,2.1l11.6,1.4l11.6,4.9l11.6-4.9l11.6,0.7l11.6-0.7l11.6,0.7l11.6-1.4l11.6,1.4h11.6
		l11.6,2.8 M49,30.5l11.6,149.8l11.6,52.5l11.6,37.8L95.4,286l11.6,20.3l11.6,15.4l11.6,9.1l11.6,5.6h11.6L165,342h11.6l11.6,1.4
		l11.6,2.8h11.6l11.6,3.5l11.6-2.8l11.6,3.5l11.6-0.7l11.6,2.8l11.6-1.4l11.6,0.7l11.6,3.5l11.6,4.2l11.6-1.4l11.6-1.4l11.6-2.8
		l11.6,0.7l11.6,0.7l11.6-1.4H397l11.6,0.7l11.6-1.4h11.6l11.6-2.1l11.6,2.8l11.6-1.4l11.6,2.1l11.6,2.1h11.6l11.6,0.7l11.6,3.5
		l11.6,2.8l11.6-1.4l11.6-0.7L571,363l11.6,1.4l11.6,0.7h11.6l11.6-1.4L629,363 M49,27l11.6,144.9l11.6,50.4l11.6,27.3l11.6,20.3
		l11.6,8.4l11.6,14l11.6,9.1l11.6,2.8l11.6,4.9L165,314l11.6,7.7l11.6,3.5l11.6,7.7h11.6l11.6-1.4l11.6,1.4l11.6-0.7l11.6,4.2
		l11.6,0.7l11.6,4.2h11.6h11.6l11.6,1.4l11.6-3.5l11.6,3.5l11.6,2.8l11.6,0.7l11.6-3.5l11.6-0.7l11.6,0.7l11.6,2.8l11.6-0.7
		l11.6,4.2l11.6,2.1l11.6,3.5l11.6-0.7l11.6,0.7l11.6,2.8h11.6l11.6-4.2l11.6,2.8l11.6,1.4h11.6l11.6-2.1l11.6-0.7l11.6,2.8h11.6
		l11.6-2.8l11.6,2.1l11.6-2.8 M49,23.5l11.6,138.6l11.6,64.4l11.6,29.4L95.4,279l11.6,4.2l11.6,11.9l11.6,2.1l11.6,11.9l11.6,7
		l11.6,2.8l11.6,4.9l11.6,0.7h11.6l11.6-2.1l11.6,2.1l11.6,2.8l11.6,4.2l11.6,0.7l11.6-0.7l11.6-4.9l11.6-1.4l11.6,2.1l11.6,2.1
		l11.6-3.5l11.6,0.7l11.6,2.8h11.6l11.6,3.5l11.6-2.1l11.6,3.5l11.6-1.4l11.6,2.1l11.6-0.7l11.6-2.1l11.6-2.1l11.6,2.8l11.6-1.4
		l11.6,2.8l11.6,2.1l11.6-0.7l11.6-1.4l11.6,2.8l11.6-2.8l11.6,0.7l11.6,2.1l11.6,1.4l11.6,0.7l11.6,1.4l11.6,2.1L629,342 M49,20
		l11.6,131.6l11.6,63l11.6,28L95.4,265l11.6,18.9l11.6,9.1l11.6,9.8l11.6,9.1l11.6,6.3l11.6,7.7l11.6,2.1l11.6-0.7l11.6,3.5
		l11.6,4.9H223l11.6,1.4l11.6,0.7h11.6l11.6-2.1l11.6,3.5l11.6,2.1l11.6,3.5l11.6,0.7l11.6-0.7H339l11.6,0.7l11.6,0.7h11.6l11.6-2.8
		l11.6,2.8l11.6-1.4l11.6,4.2l11.6,1.4l11.6-2.1l11.6,1.4h11.6l11.6,0.7l11.6,1.4l11.6-1.4l11.6,2.1l11.6,1.4l11.6,2.1l11.6,1.4
		l11.6-1.4l11.6,1.4l11.6,1.4h11.6l11.6-0.7l11.6-0.7l11.6,2.8 M49,16.5l11.6,147l11.6,53.2L83.8,244l11.6,19.6l11.6,16.1l11.6,11.9
		l11.6,4.9l11.6,10.5l11.6,2.1l11.6,6.3l11.6,3.5l11.6,0.7l11.6,2.8l11.6,5.6l11.6,2.8h11.6l11.6,5.6l11.6,4.2l11.6,3.5l11.6,3.5
		h11.6l11.6-2.1l11.6,5.6l11.6-2.1l11.6-0.7l11.6-4.2l11.6,2.1l11.6,1.4l11.6-1.4l11.6,1.4l11.6,1.4l11.6-0.7l11.6,2.1l11.6-1.4
		l11.6-2.1l11.6-1.4l11.6-0.7l11.6-4.2l11.6-1.4l11.6-0.7l11.6,2.1l11.6-0.7l11.6,1.4h11.6l11.6-0.7l11.6,0.7l11.6,0.7l11.6-1.4
		l11.6-1.4l11.6,1.4 M49,13l11.6,152.6l11.6,58.8l11.6,27.3L95.4,272l11.6,18.2l11.6,8.4l11.6,7.7l11.6,5.6l11.6,5.6l11.6,11.2
		l11.6,3.5l11.6,7l11.6-0.7l11.6,7.7l11.6,1.4l11.6-3.5h11.6l11.6,2.8l11.6,0.7l11.6,2.1l11.6,0.7l11.6-1.4l11.6,2.1l11.6-1.4H339
		l11.6-0.7l11.6,3.5l11.6-1.4l11.6,2.1l11.6-1.4h11.6h11.6l11.6,2.8l11.6,0.7l11.6,3.5l11.6,1.4l11.6,1.4l11.6-0.7l11.6-1.4
		l11.6,2.8l11.6,4.9l11.6-3.5l11.6,0.7l11.6-2.1L571,363l11.6-2.1h11.6l11.6-2.8l11.6,2.1l11.6,0.7 M49,9.5L60.6,153l11.6,63
		l11.6,42l11.6,18.2l11.6,4.2l11.6,13.3l11.6,7.7l11.6,5.6l11.6,0.7l11.6,5.6l11.6,3.5h11.6l11.6,4.2l11.6,0.7l11.6,7l11.6,4.9
		l11.6,6.3l11.6,2.1l11.6,0.7l11.6,3.5l11.6,2.8l11.6-1.4l11.6,1.4l11.6,0.7H339l11.6,0.7l11.6,4.9h11.6l11.6,1.4l11.6-1.4l11.6,2.1
		l11.6,2.8h11.6h11.6l11.6-2.1l11.6-2.8l11.6,0.7l11.6-2.1l11.6,3.5H513l11.6-2.1l11.6,2.1l11.6,0.7l11.6-0.7l11.6,2.8l11.6-0.7
		l11.6,1.4l11.6,4.2l11.6-0.7L629,363 M49,6l11.6,165.9l11.6,53.9l11.6,19.6l11.6,24.5L107,286l11.6,19.6h11.6l11.6,16.8l11.6,10.5
		l11.6,0.7h11.6l11.6,0.7l11.6,2.8l11.6,7.7l11.6-0.7l11.6,0.7l11.6,1.4l11.6-1.4l11.6-1.4l11.6-0.7l11.6-2.1l11.6,4.9l11.6-0.7
		l11.6-0.7l11.6-0.7l11.6,1.4h11.6l11.6,2.8l11.6,0.7l11.6,1.4l11.6-3.5l11.6,4.2l11.6,1.4l11.6,4.9l11.6,1.4l11.6,0.7l11.6-1.4
		l11.6-2.1l11.6,7L513,363l11.6,2.1l11.6,0.7l11.6-3.5l11.6-0.7l11.6,0.7l11.6-2.8l11.6,0.7h11.6l11.6,1.4H629"/>
	<rect x="49" y="6" class="st4" width="580" height="700"/>
	<path class="st5" d="M49,6v700h580 M49,706v3 M165,706v3 M281,706v3 M397,706v3 M513,706v3 M628.8,706v3 M49,706h-3 M49,636h-3
		 M49,566h-3 M49,496h-3 M49,426h-3 M49,356h-3 M49,286h-3 M49,216h-3 M49,146h-3 M49,76h-3 M49,6.3h-3"/>
	<text transform="matrix(1 0 0 1 620.021 722.521)" class="st6 st7 st8">50</text>
	<text transform="matrix(1 0 0 1 505.271 722.521)" class="st6 st7 st8">40</text>
	<text transform="matrix(1 0 0 1 389.271 722.521)" class="st6 st7 st8">30</text>
	<text transform="matrix(1 0 0 1 272.9377 722.521)" class="st6 st7 st8">20</text>
	<text transform="matrix(1 0 0 1 157.271 722.521)" class="st6 st7 st8">10</text>
	<text transform="matrix(1 0 0 1 44.6043 722.521)" class="st6 st7 st8">0</text>
	<text transform="matrix(1 0 0 1 36.8413 712.021)" class="st6 st7 st8">0</text>
	<text transform="matrix(1 0 0 1 21.271 642.021)" class="st6 st7 st8">100</text>
	<text transform="matrix(1 0 0 1 21.271 572.021)" class="st6 st7 st8">200</text>
	<text transform="matrix(1 0 0 1 21.271 502.021)" class="st6 st7 st8">300</text>
	<text transform="matrix(1 0 0 1 21.271 432.021)" class="st6 st7 st8">400</text>
	<text transform="matrix(1 0 0 1 21.271 362.021)" class="st6 st7 st8">500</text>
	<text transform="matrix(1 0 0 1 21.271 292.021)" class="st6 st7 st8">600</text>
	<text transform="matrix(1 0 0 1 21.271 222.021)" class="st6 st7 st8">700</text>
	<text transform="matrix(1 0 0 1 21.271 152.021)" class="st6 st7 st8">800</text>
	<text transform="matrix(1 0 0 1 21.271 82.021)" class="st6 st7 st8">900</text>
	<text transform="matrix(1 0 0 1 13.4897 12.021)" class="st6 st7 st8">1000</text>
	<text transform="matrix(1 0 0 1 234.7554 738.021)" class="st6 st7 st8">iterations of pooled recall process</text>
	<text transform="matrix(0 -1 1 0 12.021 465.7397)" class="st6 st7 st8">hamming distance between vectors</text>
</g>
</svg>
